<svg xmlns="http://www.w3.org/2000/svg" width="1020" height="770" viewBox="0 0 1020 770">
<rect width="100%" height="100%" fill="white"/>
<style>
text{font-family:Arial, Helvetica, sans-serif; fill:#222;}
.title{font-size:17px;} .tick{font-size:13px;} .ylabel,.xlabel{font-size:14px;}
.grid{stroke:#b0b0b0; stroke-width:1; opacity:0.75;}
</style>
<text class="title" x="520.0" y="33.0" text-anchor="middle">Raw ADC CSV</text>
<rect x="70" y="45" width="900" height="170" fill="white" stroke="#222" stroke-width="1"/>
<line class="grid" x1="70.0" y1="45" x2="70.0" y2="215"/>
<text class="tick" x="70.0" y="233" text-anchor="middle">0</text>
<line class="grid" x1="250.1" y1="45" x2="250.1" y2="215"/>
<text class="tick" x="250.1" y="233" text-anchor="middle">1</text>
<line class="grid" x1="430.2" y1="45" x2="430.2" y2="215"/>
<text class="tick" x="430.2" y="233" text-anchor="middle">2</text>
<line class="grid" x1="610.3" y1="45" x2="610.3" y2="215"/>
<text class="tick" x="610.3" y="233" text-anchor="middle">3</text>
<line class="grid" x1="790.4" y1="45" x2="790.4" y2="215"/>
<text class="tick" x="790.4" y="233" text-anchor="middle">4</text>
<line class="grid" x1="70" y1="149.4" x2="970" y2="149.4"/>
<text class="tick" x="62" y="153.4" text-anchor="end">2.5</text>
<line class="grid" x1="70" y1="79.9" x2="970" y2="79.9"/>
<text class="tick" x="62" y="83.9" text-anchor="end">3.0</text>
<line class="grid" x1="70" y1="10.5" x2="970" y2="10.5"/>
<text class="tick" x="62" y="14.5" text-anchor="end">3.5</text>
<polyline points="70.00,130.70 70.45,115.34 70.90,127.91 71.35,158.61 71.80,164.20 72.25,162.80 72.70,153.03 73.15,132.09 73.60,125.11 74.05,147.45 74.50,161.40 74.95,164.20 75.40,164.20 75.85,158.61 76.30,139.07 76.75,141.86 77.20,175.36 77.65,186.53 78.10,189.32 78.55,180.94 79.00,164.20 79.45,153.03 79.90,164.20 80.36,186.53 80.81,192.11 81.26,192.11 81.71,180.94 82.16,164.20 82.61,153.03 83.06,175.36 83.51,192.11 83.96,192.11 84.41,186.53 84.86,179.55 85.31,155.82 85.76,154.43 86.21,180.94 86.66,192.11 87.11,192.11 87.56,180.94 88.01,164.20 88.46,147.45 88.91,155.82 89.36,175.36 89.81,175.36 90.26,169.78 90.71,155.82 91.16,125.11 91.61,108.37 92.06,125.11 92.51,133.49 92.96,130.70 93.41,125.11 93.86,109.76 94.31,88.83 94.76,86.03 95.21,108.37 95.66,119.53 96.11,111.16 96.56,102.78 97.01,91.62 97.46,73.47 97.91,80.45 98.36,108.37 98.81,108.37 99.26,104.18 99.71,97.20 100.17,73.47 100.62,63.70 101.07,86.03 101.52,102.78 101.97,108.37 102.42,102.78 102.87,97.20 103.32,80.45 103.77,76.26 104.22,108.37 104.67,115.34 105.12,116.74 105.57,108.37 106.02,91.62 106.47,74.87 106.92,86.03 107.37,113.95 107.82,119.53 108.27,119.53 108.72,111.16 109.17,91.62 109.62,86.03 110.07,108.37 110.52,125.11 110.97,125.11 111.42,119.53 111.87,102.78 112.32,80.45 112.77,76.26 113.22,108.37 113.67,123.72 114.12,119.53 114.57,113.95 115.02,97.20 115.47,80.45 115.92,86.03 116.37,112.55 116.82,119.53 117.27,113.95 117.72,108.37 118.17,90.22 118.62,86.03 119.07,104.18 119.52,125.11 119.97,125.11 120.43,119.53 120.88,108.37 121.33,86.03 121.78,86.03 122.23,113.95 122.68,130.70 123.13,125.11 123.58,120.93 124.03,108.37 124.48,91.62 124.93,97.20 125.38,123.72 125.83,125.11 126.28,125.11 126.73,113.95 127.18,97.20 127.63,80.45 128.08,104.18 128.53,122.32 128.98,125.11 129.43,125.11 129.88,113.95 130.33,94.41 130.78,97.20 131.23,119.53 131.68,130.70 132.13,130.70 132.58,119.53 133.03,102.78 133.48,86.03 133.93,97.20 134.38,123.72 134.83,130.70 135.28,126.51 135.73,119.53 136.18,97.20 136.63,86.03 137.08,104.18 137.53,122.32 137.98,125.11 138.43,125.11 138.88,112.55 139.33,91.62 139.78,91.62 140.24,119.53 140.69,136.28 141.14,130.70 141.59,120.93 142.04,113.95 142.49,97.20 142.94,102.78 143.39,130.70 143.84,130.70 144.29,132.09 144.74,125.11 145.19,98.60 145.64,97.20 146.09,113.95 146.54,130.70 146.99,134.89 147.44,125.11 147.89,119.53 148.34,94.41 148.79,97.20 149.24,119.53 149.69,130.70 150.14,130.70 150.59,123.72 151.04,102.78 151.49,90.22 151.94,97.20 152.39,123.72 152.84,130.70 153.29,130.70 153.74,125.11 154.19,106.97 154.64,97.20 155.09,113.95 155.54,136.28 155.99,136.28 156.44,130.70 156.89,119.53 157.34,97.20 157.79,97.20 158.24,119.53 158.69,140.47 159.14,144.66 159.59,141.86 160.05,125.11 160.50,118.14 160.95,125.11 161.40,147.45 161.85,153.03 162.30,154.43 162.75,147.45 163.20,119.53 163.65,108.37 164.10,130.70 164.55,147.45 165.00,143.26 165.45,136.28 165.90,125.11 166.35,99.99 166.80,93.01 167.25,119.53 167.70,132.09 168.15,133.49 168.60,125.11 169.05,108.37 169.50,93.01 169.95,97.20 170.40,123.72 170.85,130.70 171.30,123.72 171.75,113.95 172.20,93.01 172.65,91.62 173.10,108.37 173.55,130.70 174.00,130.70 174.45,130.70 174.90,119.53 175.35,99.99 175.80,99.99 176.25,125.11 176.70,137.68 177.15,141.86 177.60,136.28 178.05,125.11 178.50,104.18 178.95,113.95 179.40,136.28 179.85,136.28 180.31,125.11 180.76,111.16 181.21,86.03 181.66,74.87 182.11,87.43 182.56,102.78 183.01,106.97 183.46,97.20 183.91,90.22 184.36,63.70 184.81,63.70 185.26,97.20 185.71,113.95 186.16,113.95 186.61,108.37 187.06,97.20 187.51,84.64 187.96,94.41 188.41,123.72 188.86,136.28 189.31,136.28 189.76,127.91 190.21,108.37 190.66,108.37 191.11,125.11 191.56,141.86 192.01,147.45 192.46,136.28 192.91,126.51 193.36,111.16 193.81,108.37 194.26,136.28 194.71,151.63 195.16,147.45 195.61,140.47 196.06,130.70 196.51,109.76 196.96,113.95 197.41,136.28 197.86,141.86 198.31,141.86 198.76,133.49 199.21,115.34 199.66,102.78 200.12,126.51 200.57,150.24 201.02,153.03 201.47,153.03 201.92,141.86 202.37,119.53 202.82,118.14 203.27,147.45 203.72,154.43 204.17,153.03 204.62,143.26 205.07,136.28 205.52,118.14 205.97,119.53 206.42,147.45 206.87,153.03 207.32,153.03 207.77,147.45 208.22,125.11 208.67,119.53 209.12,136.28 209.57,155.82 210.02,157.22 210.47,153.03 210.92,147.45 211.37,125.11 211.82,120.93 212.27,153.03 212.72,169.78 213.17,166.99 213.62,158.61 214.07,153.03 214.52,126.51 214.97,136.28 215.42,160.01 215.87,169.78 216.32,164.20 216.77,158.61 217.22,136.28 217.67,125.11 218.12,147.45 218.57,166.99 219.02,171.17 219.47,169.78 219.92,164.20 220.38,147.45 220.83,147.45 221.28,175.36 221.73,192.11 222.18,192.11 222.63,187.92 223.08,175.36 223.53,162.80 223.98,166.99 224.43,197.69 224.88,203.28 225.33,197.69 225.78,189.32 226.23,169.78 226.68,158.61 227.13,176.76 227.58,197.69 228.03,203.28 228.48,197.69 228.93,186.53 229.38,161.40 229.83,157.22 230.28,180.94 230.73,192.11 231.18,186.53 231.63,175.36 232.08,158.61 232.53,136.28 232.98,139.07 233.43,164.20 233.88,164.20 234.33,158.61 234.78,147.45 235.23,120.93 235.68,113.95 236.13,125.11 236.58,141.86 237.03,141.86 237.48,136.28 237.93,125.11 238.38,97.20 238.83,91.62 239.28,113.95 239.73,125.11 240.19,119.53 240.64,113.95 241.09,97.20 241.54,80.45 241.99,86.03 242.44,108.37 242.89,113.95 243.34,113.95 243.79,102.78 244.24,86.03 244.69,69.29 245.14,93.01 245.59,113.95 246.04,113.95 246.49,108.37 246.94,102.78 247.39,77.66 247.84,69.29 248.29,97.20 248.74,113.95 249.19,113.95 249.64,108.37 250.09,91.62 250.54,80.45 250.99,91.62 251.44,123.72 251.89,130.70 252.34,133.49 252.79,119.53 253.24,102.78 253.69,91.62 254.14,108.37 254.59,127.91 255.04,136.28 255.49,125.11 255.94,119.53 256.39,91.62 256.84,87.43 257.29,113.95 257.74,125.11 258.19,125.11 258.64,115.34 259.09,102.78 259.54,91.62 259.99,94.41 260.45,119.53 260.90,125.11 261.35,125.11 261.80,116.74 262.25,97.20 262.70,86.03 263.15,102.78 263.60,125.11 264.05,125.11 264.50,119.53 264.95,113.95 265.40,94.41 265.85,95.80 266.30,119.53 266.75,132.09 267.20,127.91 267.65,120.93 268.10,113.95 268.55,91.62 269.00,99.99 269.45,129.30 269.90,136.28 270.35,134.89 270.80,119.53 271.25,102.78 271.70,91.62 272.15,108.37 272.60,127.91 273.05,134.89 273.50,130.70 273.95,115.34 274.40,97.20 274.85,91.62 275.30,119.53 275.75,134.89 276.20,130.70 276.65,119.53 277.10,108.37 277.55,90.22 278.00,91.62 278.45,118.14 278.90,130.70 279.35,125.11 279.80,122.32 280.26,102.78 280.71,97.20 281.16,109.76 281.61,130.70 282.06,136.28 282.51,130.70 282.96,119.53 283.41,97.20 283.86,95.80 284.31,113.95 284.76,136.28 285.21,133.49 285.66,126.51 286.11,113.95 286.56,95.80 287.01,102.78 287.46,130.70 287.91,136.28 288.36,137.68 288.81,130.70 289.26,113.95 289.71,102.78 290.16,113.95 290.61,130.70 291.06,130.70 291.51,130.70 291.96,123.72 292.41,99.99 292.86,97.20 293.31,125.11 293.76,137.68 294.21,136.28 294.66,130.70 295.11,119.53 295.56,102.78 296.01,108.37 296.46,136.28 296.91,141.86 297.36,147.45 297.81,130.70 298.26,113.95 298.71,102.78 299.16,115.34 299.61,133.49 300.07,136.28 300.52,136.28 300.97,119.53 301.42,99.99 301.87,98.60 302.32,130.70 302.77,146.05 303.22,144.66 303.67,147.45 304.12,136.28 304.57,123.72 305.02,127.91 305.47,148.84 305.92,158.61 306.37,154.43 306.82,147.45 307.27,125.11 307.72,113.95 308.17,125.11 308.62,144.66 309.07,147.45 309.52,141.86 309.97,126.51 310.42,102.78 310.87,97.20 311.32,119.53 311.77,134.89 312.22,136.28 312.67,130.70 313.12,113.95 313.57,93.01 314.02,99.99 314.47,130.70 314.92,136.28 315.37,136.28 315.82,125.11 316.27,108.37 316.72,91.62 317.17,112.55 317.62,130.70 318.07,126.51 318.52,125.11 318.97,119.53 319.42,94.41 319.87,95.80 320.33,125.11 320.78,141.86 321.23,141.86 321.68,140.47 322.13,125.11 322.58,97.20 323.03,99.99 323.48,123.72 323.93,125.11 324.38,126.51 324.83,113.95 325.28,87.43 325.73,74.87 326.18,91.62 326.63,111.16 327.08,113.95 327.53,113.95 327.98,102.78 328.43,83.24 328.88,80.45 329.33,108.37 329.78,119.53 330.23,119.53 330.68,113.95 331.13,102.78 331.58,86.03 332.03,97.20 332.48,125.11 332.93,141.86 333.38,141.86 333.83,136.28 334.28,119.53 334.73,108.37 335.18,125.11 335.63,147.45 336.08,147.45 336.53,141.86 336.98,136.28 337.43,116.74 337.88,113.95 338.33,141.86 338.78,158.61 339.23,158.61 339.68,148.84 340.14,141.86 340.59,119.53 341.04,119.53 341.49,147.45 341.94,147.45 342.39,147.45 342.84,139.07 343.29,119.53 343.74,108.37 344.19,126.51 344.64,147.45 345.09,147.45 345.54,147.45 345.99,140.47 346.44,116.74 346.89,115.34 347.34,141.86 347.79,157.22 348.24,158.61 348.69,153.03 349.14,141.86 349.59,119.53 350.04,119.53 350.49,153.03 350.94,158.61 351.39,157.22 351.84,147.45 352.29,130.70 352.74,119.53 353.19,132.09 353.64,158.61 354.09,165.59 354.54,164.20 354.99,154.43 355.44,133.49 355.89,134.89 356.34,153.03 356.79,175.36 357.24,175.36 357.69,165.59 358.14,153.03 358.59,137.68 359.04,139.07 359.49,168.38 359.94,175.36 360.40,175.36 360.85,164.20 361.30,148.84 361.75,141.86 362.20,158.61 362.65,178.15 363.10,180.94 363.55,180.94 364.00,175.36 364.45,153.03 364.90,147.45 365.35,180.94 365.80,193.51 366.25,194.90 366.70,192.11 367.15,180.94 367.60,164.20 368.05,166.99 368.50,196.30 368.95,203.28 369.40,197.69 369.85,189.32 370.30,175.36 370.75,164.20 371.20,175.36 371.65,197.69 372.10,199.09 372.55,197.69 373.00,186.53 373.45,164.20 373.90,162.80 374.35,180.94 374.80,193.51 375.25,186.53 375.70,179.55 376.15,164.20 376.60,136.28 377.05,133.49 377.50,157.22 377.95,158.61 378.40,158.61 378.85,141.86 379.30,123.72 379.75,108.37 380.21,113.95 380.66,133.49 381.11,130.70 381.56,125.11 382.01,112.55 382.46,80.45 382.91,74.87 383.36,102.78 383.81,113.95 384.26,111.16 384.71,109.76 385.16,97.20 385.61,86.03 386.06,88.83 386.51,113.95 386.96,125.11 387.41,125.11 387.86,111.16 388.31,91.62 388.76,80.45 389.21,95.80 389.66,116.74 390.11,119.53 390.56,119.53 391.01,108.37 391.46,86.03 391.91,74.87 392.36,108.37 392.81,115.34 393.26,116.74 393.71,108.37 394.16,102.78 394.61,80.45 395.06,86.03 395.51,113.95 395.96,125.11 396.41,126.51 396.86,113.95 397.31,102.78 397.76,86.03 398.21,102.78 398.66,125.11 399.11,125.11 399.56,119.53 400.02,113.95 400.47,97.20 400.92,91.62 401.37,119.53 401.82,140.47 402.27,139.07 402.72,132.09 403.17,119.53 403.62,95.80 404.07,97.20 404.52,119.53 404.97,125.11 405.42,125.11 405.87,116.74 406.32,102.78 406.77,91.62 407.22,101.39 407.67,127.91 408.12,129.30 408.57,125.11 409.02,118.14 409.47,94.41 409.92,91.62 410.37,113.95 410.82,130.70 411.27,127.91 411.72,125.11 412.17,113.95 412.62,91.62 413.07,97.20 413.52,119.53 413.97,130.70 414.42,130.70 414.87,119.53 415.32,104.18 415.77,91.62 416.22,98.60 416.67,125.11 417.12,125.11 417.57,125.11 418.02,115.34 418.47,91.62 418.92,87.43 419.37,113.95 419.82,130.70 420.28,133.49 420.73,130.70 421.18,113.95 421.63,101.39 422.08,102.78 422.53,126.51 422.98,141.86 423.43,136.28 423.88,125.11 424.33,108.37 424.78,97.20 425.23,109.76 425.68,136.28 426.13,137.68 426.58,136.28 427.03,125.11 427.48,99.99 427.93,91.62 428.38,113.95 428.83,130.70 429.28,125.11 429.73,120.93 430.18,108.37 430.63,97.20 431.08,97.20 431.53,125.11 431.98,136.28 432.43,134.89 432.88,122.32 433.33,108.37 433.78,97.20 434.23,108.37 434.68,130.70 435.13,132.09 435.58,130.70 436.03,119.53 436.48,97.20 436.93,91.62 437.38,125.11 437.83,141.86 438.28,139.07 438.73,141.86 439.18,130.70 439.63,118.14 440.09,119.53 440.54,147.45 440.99,153.03 441.44,153.03 441.89,141.86 442.34,125.11 442.79,113.95 443.24,126.51 443.69,153.03 444.14,158.61 444.59,153.03 445.04,147.45 445.49,119.53 445.94,108.37 446.39,130.70 446.84,143.26 447.29,139.07 447.74,134.89 448.19,119.53 448.64,95.80 449.09,91.62 449.54,119.53 449.99,125.11 450.44,129.30 450.89,116.74 451.34,97.20 451.79,86.03 452.24,101.39 452.69,125.11 453.14,130.70 453.59,125.11 454.04,123.72 454.49,97.20 454.94,91.62 455.39,113.95 455.84,129.30 456.29,130.70 456.74,125.11 457.19,119.53 457.64,106.97 458.09,113.95 458.54,147.45 458.99,153.03 459.44,153.03 459.89,139.07 460.35,113.95 460.80,91.62 461.25,97.20 461.70,116.74 462.15,113.95 462.60,102.78 463.05,91.62 463.50,69.29 463.95,56.72 464.40,86.03 464.85,102.78 465.30,105.57 465.75,106.97 466.20,97.20 466.65,76.26 467.10,80.45 467.55,109.76 468.00,119.53 468.45,120.93 468.90,119.53 469.35,108.37 469.80,97.20 470.25,115.34 470.70,141.86 471.15,146.05 471.60,141.86 472.05,136.28 472.50,113.95 472.95,108.37 473.40,136.28 473.85,153.03 474.30,147.45 474.75,141.86 475.20,136.28 475.65,112.55 476.10,113.95 476.55,141.86 477.00,153.03 477.45,154.43 477.90,144.66 478.35,130.70 478.80,119.53 479.25,130.70 479.70,153.03 480.16,164.20 480.61,158.61 481.06,141.86 481.51,116.74 481.96,112.55 482.41,130.70 482.86,151.63 483.31,147.45 483.76,140.47 484.21,130.70 484.66,108.37 485.11,113.95 485.56,137.68 486.01,153.03 486.46,147.45 486.91,141.86 487.36,125.11 487.81,113.95 488.26,125.11 488.71,150.24 489.16,157.22 489.61,164.20 490.06,151.63 490.51,127.91 490.96,130.70 491.41,153.03 491.86,168.38 492.31,169.78 492.76,162.80 493.21,153.03 493.66,136.28 494.11,136.28 494.56,164.20 495.01,175.36 495.46,169.78 495.91,164.20 496.36,148.84 496.81,136.28 497.26,146.05 497.71,172.57 498.16,175.36 498.61,175.36 499.06,169.78 499.51,147.45 499.96,137.68 500.42,164.20 500.87,186.53 501.32,186.53 501.77,180.94 502.22,175.36 502.67,158.61 503.12,161.40 503.57,192.11 504.02,203.28 504.47,203.28 504.92,192.11 505.37,176.76 505.82,164.20 506.27,176.76 506.72,200.48 507.17,203.28 507.62,203.28 508.07,192.11 508.52,172.57 508.97,164.20 509.42,186.53 509.87,203.28 510.32,197.69 510.77,193.51 511.22,175.36 511.67,148.84 512.12,147.45 512.57,169.78 513.02,180.94 513.47,175.36 513.92,158.61 514.37,141.86 514.82,125.11 515.27,130.70 515.72,147.45 516.17,147.45 516.62,141.86 517.07,125.11 517.52,97.20 517.97,80.45 518.42,102.78 518.87,113.95 519.32,108.37 519.77,106.97 520.23,91.62 520.68,74.87 521.13,72.08 521.58,106.97 522.03,113.95 522.48,115.34 522.93,111.16 523.38,97.20 523.83,80.45 524.28,91.62 524.73,111.16 525.18,115.34 525.63,113.95 526.08,108.37 526.53,83.24 526.98,76.26 527.43,102.78 527.88,119.53 528.33,119.53 528.78,113.95 529.23,102.78 529.68,80.45 530.13,80.45 530.58,102.78 531.03,113.95 531.48,118.14 531.93,111.16 532.38,97.20 532.83,80.45 533.28,97.20 533.73,122.32 534.18,120.93 534.63,125.11 535.08,113.95 535.53,86.03 535.98,80.45 536.43,97.20 536.88,119.53 537.33,122.32 537.78,119.53 538.23,108.37 538.68,91.62 539.13,91.62 539.58,123.72 540.04,136.28 540.49,132.09 540.94,125.11 541.39,108.37 541.84,91.62 542.29,104.18 542.74,127.91 543.19,130.70 543.64,125.11 544.09,113.95 544.54,91.62 544.99,86.03 545.44,108.37 545.89,129.30 546.34,130.70 546.79,125.11 547.24,113.95 547.69,97.20 548.14,99.99 548.59,130.70 549.04,141.86 549.49,136.28 549.94,125.11 550.39,113.95 550.84,108.37 551.29,109.76 551.74,133.49 552.19,136.28 552.64,136.28 553.09,119.53 553.54,97.20 553.99,86.03 554.44,113.95 554.89,126.51 555.34,130.70 555.79,126.51 556.24,119.53 556.69,97.20 557.14,97.20 557.59,130.70 558.04,141.86 558.49,141.86 558.94,133.49 559.39,119.53 559.84,102.78 560.30,108.37 560.75,130.70 561.20,136.28 561.65,130.70 562.10,126.51 562.55,102.78 563.00,97.20 563.45,125.11 563.90,141.86 564.35,141.86 564.80,134.89 565.25,125.11 565.70,102.78 566.15,99.99 566.60,120.93 567.05,136.28 567.50,134.89 567.95,125.11 568.40,112.55 568.85,97.20 569.30,113.95 569.75,139.07 570.20,141.86 570.65,136.28 571.10,126.51 571.55,108.37 572.00,97.20 572.45,119.53 572.90,141.86 573.35,144.66 573.80,141.86 574.25,130.70 574.70,112.55 575.15,105.57 575.60,134.89 576.05,147.45 576.50,146.05 576.95,133.49 577.40,123.72 577.85,102.78 578.30,119.53 578.75,144.66 579.20,154.43 579.65,153.03 580.11,143.26 580.56,122.32 581.01,113.95 581.46,136.28 581.91,153.03 582.36,153.03 582.81,143.26 583.26,130.70 583.71,113.95 584.16,105.57 584.61,130.70 585.06,136.28 585.51,130.70 585.96,122.32 586.41,102.78 586.86,86.03 587.31,97.20 587.76,125.11 588.21,126.51 588.66,125.11 589.11,125.11 589.56,99.99 590.01,91.62 590.46,119.53 590.91,136.28 591.36,133.49 591.81,130.70 592.26,119.53 592.71,97.20 593.16,97.20 593.61,129.30 594.06,141.86 594.51,141.86 594.96,136.28 595.41,125.11 595.86,113.95 596.31,125.11 596.76,147.45 597.21,144.66 597.66,136.28 598.11,123.72 598.56,94.41 599.01,81.85 599.46,102.78 599.91,113.95 600.37,105.57 600.82,104.18 601.27,91.62 601.72,74.87 602.17,72.08 602.62,98.60 603.07,119.53 603.52,119.53 603.97,113.95 604.42,106.97 604.87,86.03 605.32,97.20 605.77,125.11 606.22,136.28 606.67,136.28 607.12,130.70 607.57,111.16 608.02,104.18 608.47,125.11 608.92,143.26 609.37,144.66 609.82,134.89 610.27,130.70 610.72,113.95 611.17,113.95 611.62,141.86 612.07,147.45 612.52,153.03 612.97,141.86 613.42,125.11 613.87,113.95 614.32,120.93 614.77,150.24 615.22,147.45 615.67,147.45 616.12,141.86 616.57,119.53 617.02,108.37 617.47,130.70 617.92,147.45 618.37,153.03 618.82,143.26 619.27,136.28 619.72,112.55 620.18,113.95 620.63,140.47 621.08,158.61 621.53,153.03 621.98,144.66 622.43,130.70 622.88,119.53 623.33,126.51 623.78,158.61 624.23,160.01 624.68,147.45 625.13,147.45 625.58,127.91 626.03,123.72 626.48,141.86 626.93,164.20 627.38,164.20 627.83,160.01 628.28,147.45 628.73,130.70 629.18,125.11 629.63,153.03 630.08,164.20 630.53,164.20 630.98,155.82 631.43,146.05 631.88,125.11 632.33,141.86 632.78,166.99 633.23,171.17 633.68,175.36 634.13,160.01 634.58,139.07 635.03,136.28 635.48,153.03 635.93,175.36 636.38,169.78 636.83,171.17 637.28,164.20 637.73,147.45 638.18,153.03 638.63,179.55 639.08,197.69 639.53,197.69 639.98,192.11 640.44,172.57 640.89,153.03 641.34,162.80 641.79,189.32 642.24,192.11 642.69,192.11 643.14,182.34 643.59,164.20 644.04,154.43 644.49,175.36 644.94,196.30 645.39,194.90 645.84,186.53 646.29,175.36 646.74,154.43 647.19,153.03 647.64,180.94 648.09,192.11 648.54,187.92 648.99,180.94 649.44,169.78 649.89,153.03 650.34,154.43 650.79,175.36 651.24,176.76 651.69,169.78 652.14,162.80 652.59,130.70 653.04,119.53 653.49,136.28 653.94,147.45 654.39,141.86 654.84,134.89 655.29,119.53 655.74,87.43 656.19,88.83 656.64,115.34 657.09,125.11 657.54,119.53 657.99,113.95 658.44,97.20 658.89,80.45 659.34,86.03 659.79,113.95 660.25,119.53 660.70,119.53 661.15,113.95 661.60,88.83 662.05,80.45 662.50,97.20 662.95,119.53 663.40,116.74 663.85,113.95 664.30,102.78 664.75,80.45 665.20,83.24 665.65,113.95 666.10,125.11 666.55,125.11 667.00,113.95 667.45,98.60 667.90,80.45 668.35,91.62 668.80,119.53 669.25,125.11 669.70,119.53 670.15,113.95 670.60,97.20 671.05,91.62 671.50,108.37 671.95,126.51 672.40,130.70 672.85,123.72 673.30,113.95 673.75,93.01 674.20,94.41 674.65,123.72 675.10,141.86 675.55,136.28 676.00,127.91 676.45,113.95 676.90,97.20 677.35,108.37 677.80,130.70 678.25,136.28 678.70,130.70 679.15,119.53 679.60,99.99 680.06,91.62 680.51,108.37 680.96,125.11 681.41,125.11 681.86,120.93 682.31,113.95 682.76,91.62 683.21,91.62 683.66,119.53 684.11,130.70 684.56,134.89 685.01,125.11 685.46,118.14 685.91,97.20 686.36,104.18 686.81,130.70 687.26,134.89 687.71,130.70 688.16,123.72 688.61,97.20 689.06,91.62 689.51,108.37 689.96,125.11 690.41,130.70 690.86,125.11 691.31,113.95 691.76,93.01 692.21,97.20 692.66,123.72 693.11,130.70 693.56,130.70 694.01,125.11 694.46,109.76 694.91,97.20 695.36,104.18 695.81,133.49 696.26,141.86 696.71,130.70 697.16,130.70 697.61,108.37 698.06,93.01 698.51,119.53 698.96,136.28 699.41,141.86 699.86,141.86 700.32,130.70 700.77,104.18 701.22,105.57 701.67,130.70 702.12,136.28 702.57,136.28 703.02,125.11 703.47,109.76 703.92,91.62 704.37,102.78 704.82,130.70 705.27,136.28 705.72,130.70 706.17,130.70 706.62,108.37 707.07,102.78 707.52,119.53 707.97,136.28 708.42,139.07 708.87,130.70 709.32,119.53 709.77,101.39 710.22,94.41 710.67,125.11 711.12,141.86 711.57,132.09 712.02,130.70 712.47,119.53 712.92,102.78 713.37,113.95 713.82,139.07 714.27,143.26 714.72,147.45 715.17,136.28 715.62,116.74 716.07,108.37 716.52,130.70 716.97,143.26 717.42,153.03 717.87,147.45 718.32,141.86 718.77,119.53 719.22,116.74 719.67,141.86 720.13,158.61 720.58,151.63 721.03,136.28 721.48,125.11 721.93,102.78 722.38,104.18 722.83,130.70 723.28,134.89 723.73,130.70 724.18,120.93 724.63,97.20 725.08,86.03 725.53,108.37 725.98,120.93 726.43,125.11 726.88,120.93 727.33,108.37 727.78,87.43 728.23,86.03 728.68,118.14 729.13,130.70 729.58,130.70 730.03,122.32 730.48,113.95 730.93,97.20 731.38,102.78 731.83,133.49 732.28,141.86 732.73,141.86 733.18,136.28 733.63,116.74 734.08,108.37 734.53,125.11 734.98,141.86 735.43,136.28 735.88,126.51 736.33,113.95 736.78,81.85 737.23,77.66 737.68,97.20 738.13,108.37 738.58,104.18 739.03,99.99 739.48,90.22 739.93,74.87 740.39,76.26 740.84,108.37 741.29,120.93 741.74,119.53 742.19,108.37 742.64,91.62 743.09,86.03 743.54,108.37 743.99,130.70 744.44,141.86 744.89,141.86 745.34,136.28 745.79,118.14 746.24,111.16 746.69,136.28 747.14,147.45 747.59,141.86 748.04,133.49 748.49,118.14 748.94,97.20 749.39,109.76 749.84,136.28 750.29,147.45 750.74,147.45 751.19,136.28 751.64,111.16 752.09,104.18 752.54,125.11 752.99,143.26 753.44,150.24 753.89,141.86 754.34,141.86 754.79,118.14 755.24,116.74 755.69,141.86 756.14,158.61 756.59,153.03 757.04,147.45 757.49,137.68 757.94,119.53 758.39,118.14 758.84,144.66 759.29,153.03 759.74,147.45 760.20,141.86 760.65,119.53 761.10,113.95 761.55,130.70 762.00,153.03 762.45,150.24 762.90,148.84 763.35,141.86 763.80,119.53 764.25,116.74 764.70,143.26 765.15,164.20 765.60,160.01 766.05,153.03 766.50,141.86 766.95,125.11 767.40,130.70 767.85,158.61 768.30,165.59 768.75,169.78 769.20,158.61 769.65,139.07 770.10,130.70 770.55,147.45 771.00,168.38 771.45,166.99 771.90,165.59 772.35,158.61 772.80,141.86 773.25,136.28 773.70,168.38 774.15,186.53 774.60,178.15 775.05,172.57 775.50,158.61 775.95,141.86 776.40,147.45 776.85,175.36 777.30,180.94 777.75,186.53 778.20,175.36 778.65,155.82 779.10,147.45 779.55,169.78 780.01,192.11 780.46,194.90 780.91,190.71 781.36,186.53 781.81,160.01 782.26,158.61 782.71,185.13 783.16,197.69 783.61,192.11 784.06,186.53 784.51,171.17 784.96,158.61 785.41,160.01 785.86,186.53 786.31,192.11 786.76,192.11 787.21,179.55 787.66,158.61 788.11,141.86 788.56,153.03 789.01,169.78 789.46,169.78 789.91,157.22 790.36,141.86 790.81,119.53 791.26,108.37 791.71,129.30 792.16,136.28 792.61,132.09 793.06,119.53 793.51,104.18 793.96,80.45 794.41,86.03 794.86,113.95 795.31,125.11 795.76,125.11 796.21,113.95 796.66,94.41 797.11,86.03 797.56,102.78 798.01,119.53 798.46,119.53 798.91,113.95 799.36,102.78 799.81,76.26 800.27,77.66 800.72,102.78 801.17,119.53 801.62,119.53 802.07,113.95 802.52,102.78 802.97,80.45 803.42,86.03 803.87,113.95 804.32,120.93 804.77,119.53 805.22,108.37 805.67,88.83 806.12,80.45 806.57,91.62 807.02,118.14 807.47,116.74 807.92,119.53 808.37,108.37 808.82,86.03 809.27,86.03 809.72,113.95 810.17,130.70 810.62,130.70 811.07,119.53 811.52,108.37 811.97,91.62 812.42,93.01 812.87,125.11 813.32,129.30 813.77,125.11 814.22,123.72 814.67,99.99 815.12,87.43 815.57,108.37 816.02,129.30 816.47,130.70 816.92,130.70 817.37,119.53 817.82,97.20 818.27,94.41 818.72,119.53 819.17,136.28 819.62,132.09 820.08,122.32 820.53,108.37 820.98,91.62 821.43,97.20 821.88,119.53 822.33,129.30 822.78,125.11 823.23,115.34 823.68,97.20 824.13,91.62 824.58,102.78 825.03,126.51 825.48,130.70 825.93,126.51 826.38,119.53 826.83,97.20 827.28,94.41 827.73,119.53 828.18,141.86 828.63,137.68 829.08,130.70 829.53,125.11 829.98,102.78 830.43,108.37 830.88,133.49 831.33,141.86 831.78,141.86 832.23,126.51 832.68,105.57 833.13,97.20 833.58,108.37 834.03,130.70 834.48,136.28 834.93,130.70 835.38,119.53 835.83,97.20 836.28,94.41 836.73,119.53 837.18,136.28 837.63,130.70 838.08,127.91 838.53,119.53 838.98,102.78 839.43,104.18 839.88,136.28 840.34,143.26 840.79,141.86 841.24,132.09 841.69,113.95 842.14,102.78 842.59,119.53 843.04,136.28 843.49,141.86 843.94,136.28 844.39,125.11 844.84,102.78 845.29,94.41 845.74,123.72 846.19,136.28 846.64,134.89 847.09,130.70 847.54,113.95 847.99,97.20 848.44,102.78 848.89,130.70 849.34,141.86 849.79,141.86 850.24,130.70 850.69,111.16 851.14,102.78 851.59,119.53 852.04,141.86 852.49,144.66 852.94,141.86 853.39,136.28 853.84,112.55 854.29,108.37 854.74,134.89 855.19,147.45 855.64,147.45 856.09,136.28 856.54,126.51 856.99,113.95 857.44,115.34 857.89,144.66 858.34,158.61 858.79,158.61 859.24,153.03 859.69,136.28 860.15,123.72 860.60,136.28 861.05,158.61 861.50,158.61 861.95,147.45 862.40,136.28 862.85,109.76 863.30,102.78 863.75,119.53 864.20,130.70 864.65,129.30 865.10,122.32 865.55,108.37 866.00,91.62 866.45,97.20 866.90,119.53 867.35,130.70 867.80,130.70 868.25,123.72 868.70,105.57 869.15,97.20 869.60,113.95 870.05,136.28 870.50,139.07 870.95,136.28 871.40,119.53 871.85,102.78 872.30,97.20 872.75,125.11 873.20,147.45 873.65,147.45 874.10,141.86 874.55,136.28 875.00,113.95 875.45,118.14 875.90,136.28 876.35,136.28 876.80,130.70 877.25,115.34 877.70,97.20 878.15,76.26 878.60,80.45 879.05,102.78 879.50,102.78 879.95,98.60 880.41,86.03 880.86,69.29 881.31,69.29 881.76,98.60 882.21,119.53 882.66,125.11 883.11,116.74 883.56,109.76 884.01,97.20 884.46,102.78 884.91,133.49 885.36,141.86 885.81,141.86 886.26,136.28 886.71,116.74 887.16,102.78 887.61,119.53 888.06,141.86 888.51,141.86 888.96,137.68 889.41,130.70 889.86,108.37 890.31,105.57 890.76,130.70 891.21,147.45 891.66,147.45 892.11,147.45 892.56,132.09 893.01,119.53 893.46,119.53 893.91,150.24 894.36,158.61 894.81,158.61 895.26,151.63 895.71,125.11 896.16,119.53 896.61,125.11 897.06,147.45 897.51,147.45 897.96,147.45 898.41,136.28 898.86,112.55 899.31,105.57 899.76,130.70 900.22,147.45 900.67,147.45 901.12,144.66 901.57,136.28 902.02,119.53 902.47,125.11 902.92,150.24 903.37,158.61 903.82,153.03 904.27,151.63 904.72,130.70 905.17,119.53 905.62,130.70 906.07,154.43 906.52,161.40 906.97,158.61 907.42,153.03 907.87,136.28 908.32,130.70 908.77,157.22 909.22,169.78 909.67,165.59 910.12,161.40 910.57,147.45 911.02,130.70 911.47,130.70 911.92,164.20 912.37,175.36 912.82,175.36 913.27,165.59 913.72,153.03 914.17,141.86 914.62,158.61 915.07,185.13 915.52,180.94 915.97,180.94 916.42,175.36 916.87,153.03 917.32,147.45 917.77,175.36 918.22,192.11 918.67,192.11 919.12,186.53 919.57,175.36 920.03,153.03 920.48,158.61 920.93,183.74 921.38,193.51 921.83,197.69 922.28,186.53 922.73,166.99 923.18,157.22 923.63,169.78 924.08,192.11 924.53,192.11 924.98,186.53 925.43,180.94 925.88,154.43 926.33,150.24 926.78,173.97 927.23,186.53 927.68,180.94 928.13,172.57 928.58,164.20 929.03,136.28 929.48,136.28 929.93,161.40 930.38,165.59 930.83,164.20 931.28,147.45 931.73,125.11 932.18,108.37 932.63,113.95 933.08,130.70 933.53,136.28 933.98,126.51 934.43,113.95 934.88,91.62 935.33,86.03 935.78,109.76 936.23,119.53 936.68,119.53 937.13,113.95 937.58,97.20 938.03,80.45 938.48,81.85 938.93,111.16 939.38,120.93 939.83,119.53 940.29,109.76 940.74,97.20 941.19,84.64 941.64,91.62 942.09,119.53 942.54,125.11 942.99,119.53 943.44,113.95 943.89,87.43 944.34,86.03 944.79,104.18 945.24,125.11 945.69,125.11 946.14,116.74 946.59,104.18 947.04,86.03 947.49,90.22 947.94,119.53 948.39,130.70 948.84,125.11 949.29,123.72 949.74,108.37 950.19,91.62 950.64,102.78 951.09,127.91 951.54,130.70 951.99,125.11 952.44,119.53 952.89,97.20 953.34,94.41 953.79,119.53 954.24,130.70 954.69,136.28 955.14,127.91 955.59,115.34 956.04,97.20 956.49,102.78 956.94,125.11 957.39,134.89 957.84,130.70 958.29,125.11 958.74,105.57 959.19,93.01 959.64,108.37 960.10,130.70 960.55,136.28 961.00,136.28 961.45,125.11 961.90,102.78 962.35,94.41 962.80,118.14 963.25,130.70 963.70,132.09 964.15,130.70 964.60,120.93 965.05,108.37 965.50,98.60 965.95,130.70 966.40,141.86 966.85,141.86 967.30,126.51 967.75,113.95 968.20,91.62 968.65,113.95 969.10,136.28 969.55,136.28 970.00,130.70" fill="none" stroke="#1f77b4" stroke-width="1.4"/>
<text class="ylabel" transform="translate(25,130.0) rotate(-90)" text-anchor="middle">Voltage [V]</text>
<text class="title" x="520.0" y="273.0" text-anchor="middle">After 60Hz Notch</text>
<rect x="70" y="285" width="900" height="170" fill="white" stroke="#222" stroke-width="1"/>
<line class="grid" x1="70.0" y1="285" x2="70.0" y2="455"/>
<text class="tick" x="70.0" y="473" text-anchor="middle">0</text>
<line class="grid" x1="250.1" y1="285" x2="250.1" y2="455"/>
<text class="tick" x="250.1" y="473" text-anchor="middle">1</text>
<line class="grid" x1="430.2" y1="285" x2="430.2" y2="455"/>
<text class="tick" x="430.2" y="473" text-anchor="middle">2</text>
<line class="grid" x1="610.3" y1="285" x2="610.3" y2="455"/>
<text class="tick" x="610.3" y="473" text-anchor="middle">3</text>
<line class="grid" x1="790.4" y1="285" x2="790.4" y2="455"/>
<text class="tick" x="790.4" y="473" text-anchor="middle">4</text>
<line class="grid" x1="70" y1="430.7" x2="970" y2="430.7"/>
<text class="tick" x="62" y="434.7" text-anchor="end">-0.4</text>
<line class="grid" x1="70" y1="396.3" x2="970" y2="396.3"/>
<text class="tick" x="62" y="400.3" text-anchor="end">-0.2</text>
<line class="grid" x1="70" y1="361.9" x2="970" y2="361.9"/>
<text class="tick" x="62" y="365.9" text-anchor="end">0.0</text>
<line class="grid" x1="70" y1="327.4" x2="970" y2="327.4"/>
<text class="tick" x="62" y="331.4" text-anchor="end">0.2</text>
<line class="grid" x1="70" y1="293.0" x2="970" y2="293.0"/>
<text class="tick" x="62" y="297.0" text-anchor="end">0.4</text>
<line class="grid" x1="70" y1="258.6" x2="970" y2="258.6"/>
<text class="tick" x="62" y="262.6" text-anchor="end">0.6</text>
<polyline points="70.00,372.24 70.45,358.69 70.90,369.39 71.35,396.02 71.80,394.35 72.25,394.10 72.70,392.55 73.15,377.65 73.60,371.32 74.05,390.47 74.50,395.26 74.95,392.58 75.40,398.05 75.85,403.90 76.30,389.25 76.75,391.05 77.20,420.85 77.65,422.48 78.10,423.39 78.55,422.41 79.00,415.40 79.45,408.28 79.90,416.13 80.36,429.86 80.81,426.36 81.26,428.16 81.71,427.04 82.16,419.52 82.61,408.45 83.06,425.98 83.51,431.91 83.96,424.66 84.41,424.17 84.86,430.49 85.31,412.28 85.76,408.63 86.21,427.90 86.66,427.59 87.11,424.62 87.56,421.59 88.01,416.61 88.46,403.58 88.91,407.14 89.36,415.48 89.81,403.61 90.26,398.70 90.71,395.77 91.16,372.66 91.61,355.05 92.06,364.43 92.51,358.19 92.96,346.59 93.41,346.83 93.86,344.46 94.31,330.97 94.76,325.41 95.21,338.04 95.66,336.23 96.11,322.56 96.56,324.06 97.01,327.58 97.46,313.60 97.91,314.79 98.36,332.02 98.81,319.02 99.26,316.00 99.71,323.00 100.17,309.89 100.62,301.23 101.07,316.58 101.52,319.30 101.97,317.37 102.42,318.16 102.87,329.25 103.32,321.98 103.77,314.57 104.22,338.16 104.67,329.94 105.12,328.07 105.57,330.42 106.02,328.30 106.47,316.72 106.92,322.62 107.37,338.64 107.82,331.62 108.27,333.89 108.72,340.18 109.17,333.35 109.62,330.16 110.07,344.77 110.52,346.36 110.97,336.90 111.42,338.10 111.87,336.41 112.32,323.06 112.77,315.59 113.22,338.30 113.67,339.50 114.12,330.44 114.57,336.87 115.02,335.72 115.47,324.67 115.92,323.34 116.37,336.75 116.82,330.75 117.27,326.10 117.72,336.56 118.17,332.27 118.62,331.07 119.07,340.00 119.52,345.98 119.97,336.05 120.43,337.47 120.88,343.43 121.33,330.69 121.78,328.44 122.23,345.39 122.68,347.63 123.13,336.59 123.58,345.12 124.03,349.85 124.48,339.23 124.93,337.75 125.38,350.54 125.83,337.06 126.28,339.27 126.73,343.29 127.18,341.35 127.63,324.84 128.08,340.39 128.53,342.29 128.98,335.41 129.43,343.88 129.88,350.36 130.33,341.60 130.78,342.87 131.23,352.49 131.68,347.25 132.13,342.90 132.58,343.06 133.03,343.14 133.48,332.89 133.93,338.21 134.38,350.52 134.83,343.51 135.28,340.47 135.73,350.06 136.18,341.68 136.63,332.30 137.08,340.69 137.53,342.12 137.98,334.92 138.43,343.47 138.88,348.64 139.33,338.54 139.78,336.41 140.24,352.63 140.69,353.90 141.14,342.45 141.59,344.52 142.04,357.10 142.49,347.13 142.94,345.47 143.39,359.18 143.84,343.19 144.29,347.01 144.74,356.84 145.19,343.64 145.64,346.53 146.09,353.04 146.54,352.40 146.99,346.68 147.44,343.15 147.89,357.26 148.34,342.29 148.79,343.70 149.24,352.79 149.69,346.79 150.14,342.07 150.59,347.72 151.04,343.33 151.49,338.82 151.94,338.89 152.39,350.59 152.84,342.92 153.29,344.91 153.74,356.67 154.19,354.18 154.64,346.89 155.09,353.31 155.54,359.28 155.99,348.09 156.44,349.75 156.89,357.20 157.34,345.98 157.79,344.04 158.24,352.95 158.69,358.76 159.14,359.05 159.59,369.98 160.05,371.06 160.50,373.69 160.95,373.76 161.40,380.04 161.85,370.39 162.30,374.03 162.75,384.24 163.20,369.89 163.65,361.01 164.10,374.24 164.55,373.04 165.00,356.50 165.45,356.46 165.90,364.11 166.35,349.64 166.80,339.08 167.25,353.02 167.70,348.24 168.15,344.98 168.60,349.10 169.05,350.38 169.50,342.76 169.95,339.32 170.40,350.61 170.85,342.53 171.30,335.80 171.75,342.68 172.20,337.14 172.65,340.42 173.10,346.64 173.55,352.22 174.00,340.77 174.45,349.41 174.90,357.20 175.35,349.76 175.80,347.87 176.25,359.99 176.70,355.08 177.15,355.22 177.60,362.85 178.05,371.17 178.50,356.73 178.95,360.20 179.40,366.19 179.85,349.35 180.31,337.39 180.76,339.15 181.21,328.56 181.66,319.81 182.11,320.80 182.56,317.60 183.01,311.23 183.46,307.75 183.91,320.84 184.36,304.89 184.81,303.04 185.26,325.46 185.71,325.61 186.16,320.48 186.61,328.13 187.06,336.57 187.51,332.62 187.96,336.12 188.41,350.69 188.86,349.29 189.31,351.10 189.76,359.81 190.21,356.23 190.66,361.42 191.11,367.63 191.56,366.10 192.01,361.35 192.46,356.08 192.91,365.71 193.36,363.70 193.81,358.50 194.26,374.04 194.71,372.39 195.16,361.94 195.61,367.77 196.06,377.96 196.51,363.77 196.96,360.49 197.41,366.43 197.86,356.26 198.31,357.90 198.76,366.54 199.21,364.79 199.66,354.59 200.12,369.56 200.57,376.63 201.02,368.24 201.47,376.66 201.92,384.56 202.37,374.04 202.82,370.75 203.27,388.07 203.72,375.94 204.17,368.78 204.62,371.05 205.07,384.76 205.52,374.18 205.97,367.57 206.42,380.42 206.87,370.12 207.32,371.61 207.77,383.67 208.22,376.83 208.67,375.43 209.12,381.84 209.57,383.65 210.02,373.39 210.47,376.50 210.92,391.35 211.37,380.97 211.82,374.35 212.27,395.15 212.72,395.00 213.17,385.95 213.62,389.91 214.07,405.44 214.52,384.65 214.97,388.49 215.42,396.10 215.87,390.85 216.32,385.30 216.77,397.38 217.22,390.66 217.67,382.47 218.12,395.83 218.57,397.56 219.02,390.62 219.47,397.12 219.92,412.02 220.38,408.68 220.83,407.34 221.28,422.95 221.73,422.70 222.18,417.00 222.63,426.12 223.08,433.08 223.53,429.69 223.98,426.68 224.43,442.90 224.88,432.34 225.33,426.71 225.78,435.33 226.23,432.17 226.68,424.09 227.13,432.30 227.58,435.67 228.03,430.34 228.48,431.58 228.93,439.60 229.38,426.01 229.83,419.58 230.28,429.99 230.73,422.73 231.18,409.99 231.63,410.41 232.08,412.24 232.53,396.87 232.98,392.21 233.43,401.49 233.88,383.90 234.33,378.16 234.78,383.30 235.23,371.56 235.68,368.79 236.13,368.41 236.58,366.57 237.03,354.20 237.48,355.34 237.93,363.35 238.38,346.39 238.83,338.36 239.28,347.08 239.73,339.76 240.19,326.89 240.64,334.15 241.09,336.02 241.54,327.68 241.99,326.58 242.44,332.40 242.89,321.64 243.34,322.70 243.79,327.80 244.24,328.26 244.69,313.50 245.14,328.75 245.59,332.04 246.04,319.56 246.49,320.62 246.94,335.57 247.39,322.17 247.84,310.78 248.29,326.44 248.74,325.94 249.19,319.90 249.64,327.12 250.09,329.04 250.54,327.72 250.99,333.60 251.44,351.52 251.89,342.41 252.34,346.85 252.79,348.47 253.24,348.96 253.69,341.21 254.14,347.87 254.59,349.43 255.04,347.26 255.49,341.32 255.94,356.23 256.39,339.40 256.84,333.28 257.29,347.29 257.74,339.89 258.19,333.78 258.64,335.70 259.09,342.75 259.54,341.47 259.99,337.09 260.45,346.46 260.90,335.61 261.35,336.49 261.80,344.90 262.25,341.91 262.70,334.23 263.15,341.01 263.60,346.10 264.05,333.52 264.50,334.38 264.95,349.19 265.40,342.75 265.85,343.66 266.30,354.32 266.75,348.67 267.20,337.26 267.65,342.52 268.10,356.45 268.55,341.43 269.00,344.10 269.45,358.71 269.90,349.52 270.35,348.53 270.80,348.21 271.25,348.72 271.70,341.19 272.15,348.10 272.60,349.72 273.05,345.64 273.50,348.06 273.95,350.73 274.40,346.14 274.85,338.58 275.30,354.53 275.75,352.27 276.20,340.68 276.65,340.59 277.10,349.33 277.55,339.65 278.00,333.88 278.45,345.11 278.90,342.74 279.35,336.34 279.80,351.43 280.26,348.51 280.71,348.10 281.16,350.02 281.61,353.42 282.06,347.45 282.51,347.93 282.96,355.67 283.41,345.98 283.86,343.83 284.31,347.85 284.76,354.21 285.21,344.15 285.66,349.06 286.11,356.02 286.56,346.48 287.01,347.84 287.46,360.91 287.91,349.81 288.36,351.86 288.81,361.60 289.26,362.16 289.71,355.00 290.16,355.38 290.61,353.64 291.06,340.62 291.51,347.82 291.96,360.65 292.41,349.31 292.86,345.62 293.31,361.87 293.76,356.09 294.21,347.60 294.66,354.09 295.11,362.78 295.56,355.11 296.01,354.89 296.46,368.00 296.91,356.78 297.36,363.86 297.81,361.43 298.26,362.08 298.71,355.07 299.16,357.28 299.61,357.21 300.07,347.51 300.52,354.58 300.97,355.32 301.42,349.30 301.87,347.48 302.32,368.95 302.77,366.54 303.22,357.91 303.67,374.68 304.12,383.42 304.57,381.08 305.02,379.26 305.47,383.72 305.92,377.57 306.37,372.39 306.82,382.03 307.27,375.85 307.72,369.01 308.17,369.56 308.62,371.15 309.07,361.29 309.52,361.34 309.97,363.83 310.42,352.77 310.87,345.89 311.32,355.27 311.77,352.73 312.22,347.40 312.67,353.76 313.12,355.67 313.57,343.10 314.02,344.82 314.47,361.33 314.92,349.86 315.37,349.77 315.82,354.23 316.27,355.06 316.72,341.40 317.17,354.11 317.62,353.92 318.07,335.31 318.52,340.48 318.97,355.08 319.42,342.37 319.87,344.24 320.33,362.30 320.78,361.44 321.23,354.29 321.68,365.76 322.13,369.41 322.58,348.28 323.03,344.90 323.48,352.80 323.93,336.07 324.38,337.61 324.83,340.28 325.28,329.04 325.73,320.66 326.18,328.24 326.63,329.79 327.08,319.77 327.53,326.59 327.98,334.24 328.43,328.47 328.88,325.21 329.33,341.60 329.78,333.84 330.23,326.64 330.68,332.86 331.13,341.66 331.58,334.39 332.03,341.44 332.48,354.58 332.93,356.90 333.38,356.67 333.83,367.92 334.28,368.74 334.73,362.12 335.18,369.78 335.63,374.86 336.08,361.37 336.53,361.19 336.98,375.68 337.43,369.90 337.88,366.70 338.33,383.19 338.78,382.39 339.23,375.14 339.68,376.06 340.14,389.99 340.59,375.82 341.04,369.14 341.49,382.37 341.94,363.93 342.39,363.60 342.84,371.28 343.29,368.63 343.74,362.09 344.19,371.60 344.64,374.98 345.09,361.43 345.54,368.05 345.99,380.74 346.44,369.81 346.89,368.47 347.34,383.32 347.79,380.76 348.24,375.13 348.69,381.14 349.14,389.86 349.59,375.79 350.04,369.23 350.49,389.42 350.94,377.83 351.39,375.66 351.84,381.54 352.29,382.37 352.74,375.93 353.19,378.62 353.64,388.94 354.09,383.96 354.54,388.75 354.99,397.93 355.44,390.49 355.89,392.70 356.34,397.25 356.79,403.35 357.24,395.94 357.69,396.66 358.14,403.60 358.59,398.20 359.04,393.45 359.49,408.54 359.94,398.70 360.40,398.20 360.85,402.24 361.30,404.74 361.75,403.53 362.20,411.51 362.65,413.28 363.10,403.11 363.55,409.52 364.00,423.78 364.45,414.58 364.90,408.23 365.35,431.93 365.80,425.99 366.25,420.24 366.70,429.48 367.15,438.06 367.60,430.97 368.05,428.07 368.50,443.28 368.95,433.44 369.40,425.90 369.85,433.27 370.30,437.47 370.75,431.16 371.20,432.37 371.65,437.65 372.10,425.68 372.55,430.22 373.00,437.47 373.45,428.31 373.90,427.28 374.35,432.07 374.80,426.13 375.25,409.87 375.70,413.78 376.15,417.14 376.60,396.32 377.05,386.66 377.50,395.00 377.95,378.15 378.40,377.38 378.85,374.28 379.30,373.34 379.75,361.99 380.21,356.39 380.66,358.20 381.11,340.91 381.56,340.14 382.01,345.63 382.46,324.47 382.91,318.38 383.36,335.32 383.81,327.58 384.26,316.39 384.71,327.16 385.16,334.01 385.61,334.05 386.06,331.40 386.51,341.47 386.96,336.65 387.41,335.77 387.86,336.10 388.31,333.50 388.76,327.45 389.21,334.02 389.66,337.53 390.11,327.06 390.56,333.11 391.01,340.32 391.46,331.35 391.91,318.45 392.36,342.37 392.81,329.39 393.26,323.27 393.71,325.30 394.16,340.82 394.61,327.12 395.06,328.04 395.51,341.61 395.96,336.71 396.41,337.43 396.86,339.43 397.31,347.24 397.76,334.39 398.21,342.79 398.66,348.03 399.11,334.00 399.56,333.02 400.02,347.11 400.47,345.13 400.92,339.28 401.37,356.36 401.82,360.63 402.27,350.92 402.72,354.57 403.17,361.44 403.62,346.13 404.07,342.00 404.52,348.69 404.97,336.78 405.42,335.63 405.87,342.72 406.32,347.13 406.77,341.34 407.22,341.21 407.67,351.63 408.12,339.20 408.57,339.80 409.02,352.14 409.47,341.61 409.92,339.38 410.37,349.61 410.82,348.61 411.27,337.03 411.72,345.76 412.17,354.40 412.62,340.96 413.07,342.15 413.52,348.83 413.97,343.72 414.42,342.42 414.87,346.02 415.32,348.80 415.77,341.43 416.22,337.92 416.67,348.27 417.12,333.96 417.57,339.65 418.02,348.56 418.47,338.17 418.92,334.32 419.37,349.74 419.82,348.64 420.28,343.84 420.73,352.55 421.18,354.34 421.63,353.14 422.08,349.19 422.53,357.56 422.98,357.53 423.43,349.23 423.88,352.85 424.33,353.98 424.78,348.44 425.23,351.86 425.68,362.15 426.13,349.48 426.58,353.39 427.03,360.59 427.48,348.55 427.93,339.59 428.38,349.83 428.83,348.68 429.28,333.43 429.73,340.35 430.18,347.36 430.63,347.95 431.08,342.35 431.53,355.92 431.98,350.64 432.43,347.45 432.88,349.28 433.33,353.92 433.78,348.47 434.23,350.23 434.68,355.32 435.13,342.56 435.58,346.38 436.03,353.56 436.48,345.06 436.93,339.67 437.38,363.81 437.83,362.59 438.28,350.68 438.73,366.15 439.18,374.91 439.63,373.91 440.09,370.17 440.54,383.76 440.99,371.45 441.44,369.82 441.89,373.32 442.34,374.58 442.79,369.30 443.24,372.92 443.69,383.16 444.14,375.42 444.59,373.88 445.04,387.95 445.49,372.68 445.94,360.57 446.39,370.95 446.84,364.44 447.29,350.59 447.74,357.29 448.19,360.90 448.64,346.25 449.09,335.75 449.54,349.36 449.99,336.89 450.44,340.28 450.89,341.99 451.34,339.88 451.79,334.77 452.24,341.94 452.69,348.69 453.14,340.81 453.59,339.15 454.04,358.41 454.49,344.96 454.94,339.88 455.39,350.31 455.84,347.21 456.29,340.17 456.74,345.08 457.19,360.83 457.64,360.10 458.09,363.52 458.54,384.05 458.99,371.51 459.44,369.61 459.89,369.55 460.35,360.58 460.80,341.74 461.25,336.87 461.70,338.40 462.15,320.04 462.60,311.36 463.05,318.50 463.50,310.33 463.95,296.72 464.40,315.85 464.85,314.42 465.30,308.98 465.75,322.44 466.20,333.02 466.65,322.03 467.10,322.11 467.55,337.48 468.00,330.05 468.45,329.77 468.90,345.21 469.35,353.58 469.80,348.68 470.25,359.46 470.70,369.63 471.15,359.84 471.60,359.72 472.05,373.76 472.50,365.66 472.95,360.80 473.40,378.23 473.85,376.75 474.30,360.84 474.75,365.59 475.20,381.38 475.65,367.03 476.10,363.74 476.55,377.38 477.00,371.58 477.45,371.19 477.90,376.21 478.35,381.20 478.80,376.43 479.25,378.65 479.70,383.58 480.16,382.29 480.61,380.34 481.06,380.54 481.51,369.10 481.96,366.10 482.41,371.47 482.86,375.10 483.31,360.78 483.76,363.71 484.21,374.35 484.66,361.84 485.11,363.86 485.56,372.33 486.01,371.64 486.46,362.47 486.91,372.61 487.36,374.17 487.81,369.52 488.26,371.85 488.71,380.26 489.16,373.69 489.61,387.18 490.06,392.51 490.51,382.84 490.96,388.62 491.41,399.28 491.86,395.99 492.31,388.48 492.76,391.29 493.21,401.88 493.66,396.37 494.11,391.61 494.56,405.35 495.01,399.43 495.46,390.12 495.91,400.15 496.36,403.45 496.81,397.19 497.26,397.92 497.71,408.09 498.16,396.24 498.61,400.93 499.06,414.83 499.51,406.97 499.96,397.33 500.42,413.28 500.87,418.61 501.32,409.23 501.77,413.64 502.22,429.41 502.67,424.02 503.12,422.86 503.57,440.11 504.02,434.10 504.47,431.57 504.92,434.60 505.37,437.94 505.82,431.82 506.27,436.12 506.72,442.84 507.17,430.87 507.62,435.42 508.07,442.35 508.52,438.02 508.97,430.27 509.42,441.14 509.87,439.50 510.32,423.05 510.77,429.04 511.22,429.24 511.67,411.87 512.12,405.69 512.57,412.63 513.02,406.53 513.47,396.90 513.92,392.88 514.37,394.53 514.82,383.38 515.27,379.19 515.72,377.29 516.17,361.73 516.62,359.18 517.07,359.10 517.52,344.48 517.97,326.52 518.42,337.52 518.87,328.95 519.32,312.35 519.77,321.64 520.23,325.25 520.68,320.10 521.13,312.35 521.58,334.96 522.03,323.61 522.48,322.47 522.93,333.89 523.38,339.01 523.83,328.00 524.28,330.88 524.73,332.47 525.18,322.00 525.63,324.49 526.08,338.19 526.53,327.09 526.98,321.37 527.43,337.66 527.88,335.97 528.33,326.17 528.78,330.17 529.23,338.97 529.68,327.00 530.13,322.83 530.58,329.89 531.03,323.65 531.48,325.86 531.93,333.78 532.38,338.95 532.83,328.04 533.28,337.90 533.73,346.38 534.18,328.90 534.63,338.24 535.08,345.04 535.53,330.55 535.98,326.63 536.43,330.81 536.88,335.99 537.33,329.58 537.78,337.03 538.23,345.88 538.68,340.88 539.13,336.71 539.58,355.85 540.04,351.30 540.49,343.13 540.94,351.08 541.39,352.82 541.84,341.91 542.29,346.55 542.74,353.27 543.19,340.99 543.64,338.25 544.09,345.06 544.54,337.48 544.99,333.54 545.44,344.63 545.89,348.09 546.34,339.98 546.79,343.97 547.24,352.80 547.69,347.77 548.14,347.07 548.59,364.51 549.04,358.26 549.49,348.35 549.94,351.06 550.39,359.68 550.84,362.62 551.29,353.50 551.74,360.27 552.19,347.97 552.64,352.07 553.09,351.89 553.54,344.32 553.99,333.54 554.44,351.64 554.89,344.74 555.34,340.01 555.79,345.61 556.24,359.58 556.69,347.71 557.14,343.68 557.59,364.65 558.04,358.36 558.49,355.24 558.94,361.31 559.39,366.47 559.84,355.68 560.30,351.86 560.75,356.95 561.20,348.04 561.65,345.10 562.10,360.42 562.55,351.15 563.00,347.39 563.45,365.58 563.90,363.87 564.35,353.88 564.80,355.93 565.25,366.40 565.70,354.57 566.15,347.17 566.60,352.64 567.05,351.52 567.50,346.59 567.95,350.85 568.40,357.75 568.85,348.75 569.30,358.84 569.75,367.41 570.20,355.00 570.65,351.98 571.10,360.33 571.55,358.00 572.00,347.41 572.45,358.75 572.90,363.96 573.35,357.35 573.80,364.51 574.25,373.22 574.70,366.63 575.15,354.13 575.60,370.03 576.05,365.43 576.50,360.42 576.95,361.16 577.40,371.49 577.85,355.63 578.30,365.81 578.75,374.43 579.20,370.64 579.65,372.73 580.11,381.01 580.56,375.21 581.01,368.12 581.46,379.54 581.91,377.90 582.36,367.82 582.81,366.25 583.26,373.14 583.71,368.25 584.16,354.08 584.61,364.89 585.06,351.71 585.51,341.48 585.96,347.30 586.41,345.44 586.86,334.76 587.31,338.11 587.76,350.29 588.21,336.16 588.66,338.19 589.11,358.47 589.56,347.41 590.01,340.36 590.46,358.80 590.91,357.24 591.36,343.69 591.81,350.68 592.26,359.21 592.71,347.39 593.16,343.67 593.61,363.22 594.06,358.74 594.51,355.39 594.96,364.57 595.41,373.01 595.86,369.27 596.31,372.71 596.76,378.06 597.21,358.76 597.66,352.06 598.11,356.66 598.56,340.37 599.01,328.20 599.46,338.11 599.91,329.69 600.37,309.18 600.82,317.77 601.27,324.48 601.72,319.60 602.17,312.54 602.62,325.30 603.07,331.19 603.52,327.72 603.97,336.76 604.42,350.37 604.87,334.62 605.32,338.20 605.77,350.54 606.22,348.46 606.67,352.01 607.12,365.17 607.57,361.02 608.02,355.87 608.47,365.88 608.92,366.13 609.37,357.66 609.82,355.78 610.27,372.83 610.72,367.98 611.17,364.45 611.62,378.99 612.07,365.85 612.52,369.25 612.97,371.33 613.42,372.81 613.87,369.20 614.32,367.64 614.77,381.72 615.22,362.32 615.67,365.83 616.12,378.96 616.57,371.38 617.02,361.10 617.47,372.86 617.92,371.35 618.37,368.00 618.82,366.09 619.27,379.71 619.72,366.28 620.18,364.52 620.63,377.32 621.08,379.69 621.53,369.19 621.98,374.72 622.43,379.71 622.88,376.16 623.33,374.62 623.78,392.15 624.23,377.88 624.68,365.77 625.13,385.83 625.58,381.74 626.03,380.17 626.48,386.78 626.93,392.17 627.38,381.82 627.83,386.76 628.28,393.45 628.73,388.75 629.18,378.45 629.63,393.01 630.08,386.66 630.53,382.97 630.98,388.42 631.43,398.64 631.88,383.12 632.33,393.80 632.78,402.66 633.23,391.73 633.68,400.24 634.13,401.24 634.58,395.53 635.03,395.83 635.48,400.78 635.93,406.11 636.38,388.70 636.83,400.46 637.28,414.08 637.73,409.51 638.18,413.18 638.63,426.04 639.08,428.24 639.53,424.39 639.98,433.23 640.44,431.41 640.89,417.76 641.34,419.91 641.79,430.49 642.24,417.70 642.69,420.88 643.14,428.76 643.59,426.60 644.04,418.41 644.49,428.63 644.94,432.17 645.39,419.81 645.84,419.34 646.29,427.78 646.74,418.13 647.19,413.28 647.64,427.92 648.09,421.41 648.54,412.23 648.99,419.25 649.44,427.82 649.89,417.76 650.34,409.65 650.79,413.34 651.24,398.71 651.69,393.09 652.14,404.38 652.59,385.00 653.04,375.22 653.49,380.34 653.94,371.73 654.39,354.04 654.84,355.18 655.29,358.45 655.74,335.08 656.19,333.83 656.64,346.76 657.09,338.40 657.54,327.36 657.99,336.05 658.44,337.78 658.89,327.86 659.34,325.02 659.79,337.32 660.25,327.76 660.70,330.69 661.15,343.70 661.60,333.06 662.05,326.86 662.50,332.02 662.95,337.19 663.40,322.86 663.85,329.13 664.30,337.60 664.75,326.43 665.20,326.98 665.65,345.11 666.10,338.43 666.55,334.24 667.00,335.98 667.45,339.46 667.90,327.86 668.35,332.00 668.80,344.30 669.25,334.71 669.70,330.67 670.15,343.63 670.60,343.38 671.05,340.70 671.50,345.93 671.95,345.93 672.40,340.19 672.85,341.19 673.30,351.34 673.75,341.93 674.20,340.85 674.65,357.33 675.10,359.30 675.55,348.09 676.00,353.18 676.45,358.36 676.90,348.57 677.35,352.84 677.80,358.30 678.25,348.65 678.70,344.47 679.15,350.39 679.60,346.70 680.06,340.69 680.51,346.07 680.96,344.38 681.41,333.35 681.86,337.62 682.31,351.14 682.76,340.07 683.21,337.44 683.66,352.34 684.11,345.64 684.56,346.36 685.01,349.54 685.46,363.34 685.91,348.51 686.36,347.78 686.81,358.51 687.26,347.03 687.71,344.38 688.16,355.38 688.61,343.10 689.06,340.72 689.51,346.25 689.96,344.54 690.41,340.28 690.86,342.67 691.31,350.97 691.76,341.73 692.21,344.45 692.66,357.70 693.11,345.74 693.56,341.13 694.01,349.39 694.46,352.83 694.91,348.51 695.36,347.92 695.81,362.13 696.26,355.73 696.71,344.27 697.16,363.86 697.61,356.83 698.06,342.51 698.51,360.26 698.96,358.53 699.41,354.12 699.86,363.28 700.32,371.55 700.77,355.52 701.22,354.95 701.67,366.54 702.12,352.77 702.57,347.99 703.02,349.21 703.47,352.68 703.92,341.58 704.37,346.33 704.82,358.84 705.27,348.88 705.72,344.19 706.17,363.69 706.62,356.72 707.07,354.66 707.52,360.42 707.97,358.68 708.42,350.67 708.87,349.31 709.32,357.54 709.77,352.00 710.22,341.21 710.67,359.80 711.12,359.80 711.57,342.75 712.02,355.95 712.47,364.63 712.92,355.42 713.37,360.34 713.82,369.42 714.27,357.58 714.72,364.81 715.17,370.39 715.62,366.99 716.07,361.67 716.52,374.48 716.97,367.50 717.42,367.95 717.87,369.87 718.32,385.01 718.77,374.45 719.22,369.05 719.67,380.79 720.13,380.66 720.58,366.85 721.03,362.64 721.48,371.40 721.93,355.48 722.38,348.44 722.83,359.23 723.28,347.22 723.73,343.88 724.18,351.15 724.63,342.68 725.08,334.10 725.53,347.01 725.98,339.95 726.43,333.30 726.88,336.80 727.33,343.31 727.78,334.63 728.23,331.14 728.68,351.58 729.13,346.16 729.58,340.81 730.03,345.13 730.48,357.39 730.93,348.57 731.38,346.89 731.83,362.89 732.28,355.93 732.73,357.59 733.18,369.96 733.63,366.78 734.08,361.85 734.53,367.98 734.98,366.08 735.43,347.14 735.88,343.54 736.33,350.01 736.78,327.64 737.23,320.90 737.68,325.86 738.13,318.61 738.58,307.87 739.03,317.23 739.48,327.81 739.93,320.91 740.39,314.21 740.84,331.95 741.29,330.01 741.74,329.75 742.19,335.14 742.64,335.54 743.09,334.27 743.54,347.43 743.99,352.39 744.44,354.02 744.89,362.39 745.34,377.52 745.79,372.60 746.24,362.55 746.69,374.48 747.14,367.12 747.59,354.49 748.04,358.59 748.49,362.31 748.94,348.63 749.39,355.88 749.84,366.69 750.29,362.90 750.74,364.24 751.19,369.60 751.64,359.69 752.09,356.82 752.54,368.33 752.99,368.07 753.44,364.40 753.89,362.28 754.34,384.31 754.79,372.55 755.24,369.54 755.69,381.54 756.14,381.06 756.59,368.31 757.04,375.77 757.49,386.39 757.94,376.27 758.39,366.34 758.84,377.21 759.29,369.90 759.74,364.20 760.20,376.39 760.65,369.97 761.10,368.94 761.55,375.36 762.00,380.29 762.45,364.41 762.90,370.84 763.35,384.20 763.80,374.25 764.25,369.62 764.70,383.39 765.15,388.03 765.60,376.90 766.05,382.57 766.50,391.51 766.95,383.22 767.40,382.02 767.85,394.61 768.30,385.48 768.75,391.79 769.20,397.04 769.65,394.15 770.10,389.77 770.55,396.24 771.00,399.39 771.45,385.14 771.90,391.49 772.35,404.87 772.80,401.93 773.25,393.93 773.70,414.63 774.15,415.75 774.60,399.33 775.05,406.68 775.50,412.20 775.95,404.02 776.40,402.90 776.85,415.47 777.30,404.51 777.75,412.44 778.20,417.67 778.65,414.88 779.10,410.61 779.55,424.06 780.01,428.89 780.46,419.70 780.91,422.50 781.36,439.34 781.81,424.40 782.26,421.73 782.71,435.55 783.16,429.66 783.61,416.56 784.06,423.82 784.51,427.66 784.96,424.80 785.41,418.61 785.86,429.45 786.31,418.38 786.76,419.25 787.21,422.70 787.66,418.26 788.11,403.77 788.56,403.46 789.01,401.32 789.46,388.53 789.91,380.82 790.36,383.83 790.81,374.22 791.26,359.57 791.71,366.51 792.16,353.59 792.61,342.07 793.06,340.61 793.51,344.52 793.96,327.98 794.41,327.08 794.86,339.61 795.31,335.32 795.76,336.07 796.21,341.24 796.66,338.63 797.11,334.65 797.56,341.33 798.01,339.12 798.46,326.20 798.91,327.05 799.36,335.27 799.81,320.58 800.27,321.63 800.72,333.78 801.17,332.89 801.62,326.42 802.07,333.54 802.52,342.68 802.97,327.99 803.42,327.20 803.87,339.74 804.32,330.17 804.77,329.06 805.22,334.18 805.67,331.63 806.12,327.78 806.57,327.62 807.02,337.51 807.47,322.75 807.92,333.87 808.37,342.06 808.82,332.64 809.27,332.07 809.72,347.74 810.17,346.81 810.62,340.25 811.07,340.36 811.52,349.50 811.97,341.80 812.42,335.92 812.87,353.70 813.32,340.62 813.77,335.95 814.22,353.10 814.67,345.37 815.12,336.42 815.57,348.47 816.02,351.47 816.47,340.10 816.92,347.65 817.37,355.78 817.82,346.39 818.27,342.47 818.72,354.77 819.17,353.85 819.62,342.00 820.08,343.73 820.53,349.36 820.98,341.73 821.43,341.17 821.88,346.92 822.33,340.73 822.78,335.94 823.23,342.60 823.68,341.78 824.13,341.58 824.58,341.66 825.03,348.16 825.48,340.17 825.93,342.38 826.38,355.62 826.83,346.28 827.28,342.50 827.73,354.93 828.18,360.92 828.63,348.94 829.08,353.98 829.53,369.95 829.98,355.51 830.43,355.10 830.88,364.39 831.33,356.41 831.78,356.65 832.23,356.28 832.68,352.01 833.13,348.49 833.58,348.70 834.03,353.51 834.48,347.16 834.93,347.50 835.38,355.46 835.83,346.16 836.28,342.52 836.73,355.07 837.18,354.15 837.63,340.33 838.08,350.42 838.53,362.87 838.98,355.42 839.43,349.97 839.88,368.01 840.34,358.27 840.79,356.65 841.24,363.06 841.69,362.24 842.14,355.36 842.59,362.65 843.04,360.60 843.49,354.17 843.94,354.35 844.39,362.22 844.84,352.96 845.29,342.54 845.74,360.40 846.19,354.30 846.64,345.55 847.09,353.77 847.54,355.79 847.99,348.42 848.44,348.30 848.89,361.25 849.34,356.66 849.79,356.64 850.24,361.19 850.69,358.62 851.14,355.31 851.59,362.74 852.04,367.69 852.49,357.75 852.94,361.24 853.39,375.89 853.84,364.90 854.29,359.80 854.74,374.37 855.19,368.33 855.64,361.22 856.09,360.61 856.54,371.17 856.99,369.03 857.44,363.90 857.89,378.73 858.34,377.61 858.79,377.44 859.24,388.73 859.69,389.55 860.15,381.16 860.60,383.59 861.05,388.66 861.50,375.19 861.95,368.13 862.40,375.71 862.85,361.26 863.30,352.85 863.75,355.49 864.20,347.77 864.65,338.82 865.10,343.21 865.55,348.48 866.00,341.22 866.45,341.44 866.90,347.76 867.35,343.17 867.80,342.86 868.25,352.27 868.70,351.32 869.15,348.22 869.60,356.00 870.05,361.14 870.50,351.07 870.95,354.24 871.40,354.80 871.85,352.48 872.30,345.94 872.75,362.54 873.20,368.69 873.65,361.36 874.10,367.34 874.55,382.91 875.00,368.79 875.45,367.44 875.90,368.68 876.35,350.23 876.80,342.86 877.25,341.74 877.70,340.77 878.15,322.22 878.60,314.59 879.05,319.80 879.50,306.19 879.95,307.47 880.41,313.12 880.86,310.83 881.31,311.35 881.76,329.81 882.21,334.23 882.66,333.70 883.11,336.08 883.56,349.89 884.01,347.97 884.46,348.49 884.91,365.38 885.36,357.26 885.81,356.66 886.26,367.54 886.71,364.85 887.16,355.08 887.61,363.16 888.06,368.41 888.51,354.71 888.96,355.82 889.41,368.29 889.86,359.14 890.31,356.36 890.76,369.78 891.21,369.01 891.66,361.41 892.11,374.00 892.56,377.36 893.01,375.56 893.46,369.35 893.91,386.35 894.36,378.16 894.81,377.39 895.26,386.39 895.71,375.05 896.16,375.80 896.61,370.22 897.06,375.53 897.51,361.72 897.96,367.85 898.41,375.01 898.86,364.19 899.31,356.38 899.76,369.94 900.22,369.18 900.67,361.46 901.12,370.43 901.57,382.39 902.02,375.46 902.47,376.32 902.92,386.49 903.37,378.29 903.82,370.48 904.27,386.28 904.72,381.84 905.17,375.76 905.62,377.22 906.07,384.30 906.52,379.08 906.97,381.65 907.42,395.68 907.87,393.53 908.32,387.54 908.77,402.89 909.22,396.93 909.67,383.94 910.12,391.12 910.57,396.16 911.02,389.31 911.47,383.31 911.92,403.87 912.37,399.06 912.82,398.09 913.27,403.49 913.72,409.48 914.17,403.49 914.62,411.91 915.07,422.43 915.52,403.29 915.97,409.24 916.42,423.26 916.87,414.27 917.32,408.38 917.77,425.50 918.22,424.67 918.67,416.76 919.12,422.13 919.57,430.66 920.03,416.99 920.48,418.02 920.93,428.22 921.38,421.60 921.83,425.70 922.28,429.31 922.73,426.70 923.18,422.55 923.63,425.88 924.08,431.20 924.53,417.15 924.98,416.06 925.43,430.05 925.88,415.94 926.33,411.90 926.78,423.90 927.23,417.85 927.68,402.91 928.13,404.72 928.58,416.70 929.03,396.20 929.48,390.43 929.93,400.67 930.38,387.06 930.83,384.12 931.28,380.73 931.73,374.70 932.18,362.01 932.63,356.79 933.08,355.19 933.53,347.97 933.98,341.58 934.43,346.89 934.88,338.03 935.33,332.36 935.78,344.43 936.23,334.89 936.68,326.78 937.13,331.96 937.58,333.55 938.03,326.97 938.48,323.02 938.93,338.50 939.38,331.77 939.83,328.73 940.29,333.92 940.74,340.00 941.19,332.59 941.64,329.19 942.09,341.46 942.54,334.17 942.99,332.87 943.44,346.77 943.89,332.76 944.34,332.38 944.79,337.61 945.24,341.91 945.69,333.72 946.14,335.35 946.59,342.09 947.04,333.82 947.49,333.43 947.94,348.97 948.39,343.97 948.84,335.67 949.29,351.15 949.74,353.73 950.19,341.18 950.64,343.06 951.09,351.94 951.54,341.18 951.99,339.80 952.44,353.61 952.89,344.76 953.34,342.72 953.79,356.69 954.24,348.94 954.69,347.64 955.14,349.18 955.59,355.84 956.04,347.57 956.49,348.98 956.94,355.97 957.39,349.26 957.84,342.63 958.29,352.83 958.74,350.18 959.19,342.86 959.64,350.02 960.10,355.49 960.55,348.18 961.00,353.64 961.45,360.45 961.90,351.59 962.35,342.69 962.80,355.02 963.25,349.04 963.70,342.51 964.15,352.61 964.60,362.67 965.05,361.34 965.50,343.79 965.95,362.95 966.40,357.98 966.85,356.50 967.30,354.54 967.75,360.51 968.20,341.07 968.65,356.91 969.10,362.43 969.55,348.24 970.00,346.77" fill="none" stroke="#1f77b4" stroke-width="1.4"/>
<text class="ylabel" transform="translate(25,370.0) rotate(-90)" text-anchor="middle">Voltage [V]</text>
<text class="title" x="520.0" y="513.0" text-anchor="middle">After 60Hz Notch + LPF 40Hz</text>
<rect x="70" y="525" width="900" height="170" fill="white" stroke="#222" stroke-width="1"/>
<line class="grid" x1="70.0" y1="525" x2="70.0" y2="695"/>
<text class="tick" x="70.0" y="713" text-anchor="middle">0</text>
<line class="grid" x1="250.1" y1="525" x2="250.1" y2="695"/>
<text class="tick" x="250.1" y="713" text-anchor="middle">1</text>
<line class="grid" x1="430.2" y1="525" x2="430.2" y2="695"/>
<text class="tick" x="430.2" y="713" text-anchor="middle">2</text>
<line class="grid" x1="610.3" y1="525" x2="610.3" y2="695"/>
<text class="tick" x="610.3" y="713" text-anchor="middle">3</text>
<line class="grid" x1="790.4" y1="525" x2="790.4" y2="695"/>
<text class="tick" x="790.4" y="713" text-anchor="middle">4</text>
<line class="grid" x1="70" y1="675.4" x2="970" y2="675.4"/>
<text class="tick" x="62" y="679.4" text-anchor="end">-0.4</text>
<line class="grid" x1="70" y1="636.2" x2="970" y2="636.2"/>
<text class="tick" x="62" y="640.2" text-anchor="end">-0.2</text>
<line class="grid" x1="70" y1="597.1" x2="970" y2="597.1"/>
<text class="tick" x="62" y="601.1" text-anchor="end">0.0</text>
<line class="grid" x1="70" y1="557.9" x2="970" y2="557.9"/>
<text class="tick" x="62" y="561.9" text-anchor="end">0.2</text>
<line class="grid" x1="70" y1="518.8" x2="970" y2="518.8"/>
<text class="tick" x="62" y="522.8" text-anchor="end">0.4</text>
<polyline points="70.00,603.29 70.45,608.42 70.90,614.82 71.35,621.15 71.80,625.58 72.25,627.16 72.70,626.41 73.15,624.96 73.60,624.59 74.05,626.00 74.50,628.64 74.95,631.65 75.40,634.58 75.85,637.63 76.30,641.45 76.75,646.62 77.20,652.55 77.65,657.71 78.10,660.86 78.55,661.98 79.00,662.10 79.45,662.55 79.90,664.00 80.36,665.99 80.81,667.49 81.26,667.86 81.71,667.22 82.16,666.32 82.61,666.12 83.06,666.83 83.51,667.75 83.96,668.01 84.41,667.33 84.86,666.02 85.31,664.85 85.76,664.60 86.21,665.19 86.66,665.61 87.11,664.85 87.56,662.69 88.01,659.56 88.46,656.15 88.91,652.72 89.36,648.67 89.81,643.02 90.26,635.25 90.71,625.56 91.16,614.96 91.61,604.89 92.06,596.27 92.51,589.04 92.96,582.77 93.41,577.19 93.86,572.22 94.31,568.02 94.76,564.82 95.21,562.37 95.66,560.04 96.11,557.50 96.56,554.98 97.01,552.81 97.46,551.26 97.91,550.37 98.36,549.67 98.81,548.47 99.26,546.55 99.71,544.27 100.17,542.32 100.62,541.57 101.07,542.43 101.52,544.46 101.97,547.01 102.42,549.62 102.87,552.06 103.32,554.25 103.77,556.30 104.22,558.06 104.67,559.00 105.12,558.92 105.57,558.12 106.02,557.27 106.47,557.22 106.92,558.48 107.37,560.74 107.82,563.26 108.27,565.52 108.72,567.39 109.17,568.98 109.62,570.44 110.07,571.49 110.52,571.44 110.97,569.92 111.42,567.21 111.87,564.13 112.32,561.79 112.77,561.12 113.22,562.00 113.67,563.34 114.12,564.09 114.57,563.86 115.02,562.83 115.47,561.58 115.92,560.80 116.37,560.74 116.82,561.23 117.27,562.19 117.72,563.62 118.17,565.43 118.62,567.44 119.07,569.29 119.52,570.45 119.97,570.65 120.43,570.16 120.88,569.48 121.33,569.25 121.78,570.02 122.23,571.71 122.68,573.62 123.13,575.16 123.58,576.14 124.03,576.45 124.48,576.17 124.93,575.54 125.38,574.70 125.83,573.59 126.28,572.28 126.73,570.89 127.18,569.65 127.63,569.06 128.08,569.54 128.53,570.96 128.98,572.95 129.43,575.12 129.88,577.06 130.33,578.46 130.78,579.28 131.23,579.38 131.68,578.62 132.13,577.15 132.58,575.46 133.03,574.12 133.48,573.62 133.93,574.10 134.38,575.08 134.83,575.80 135.28,575.83 135.73,575.09 136.18,573.80 136.63,572.52 137.08,571.80 137.53,571.81 137.98,572.41 138.43,573.41 138.88,574.55 139.33,575.79 139.78,577.34 140.24,579.08 140.69,580.53 141.14,581.53 141.59,582.31 142.04,582.93 142.49,583.31 142.94,583.45 143.39,583.36 143.84,583.13 144.29,582.89 144.74,582.73 145.19,582.65 145.64,582.71 146.09,582.81 146.54,582.70 146.99,582.35 147.44,581.92 147.89,581.49 148.34,581.01 148.79,580.52 149.24,579.96 149.69,579.10 150.14,577.95 150.59,576.72 151.04,575.71 151.49,575.32 151.94,575.88 152.39,577.34 152.84,579.40 153.29,581.73 153.74,583.91 154.19,585.52 154.64,586.45 155.09,586.79 155.54,586.52 155.99,585.69 156.44,584.63 156.89,583.73 157.34,583.51 157.79,584.65 158.24,587.50 158.69,591.77 159.14,596.79 159.59,601.82 160.05,606.21 160.50,609.58 160.95,611.81 161.40,612.98 161.85,613.27 162.30,612.83 162.75,611.61 163.20,609.66 163.65,607.29 164.10,604.66 164.55,601.49 165.00,597.73 165.45,593.69 165.90,589.68 166.35,586.01 166.80,583.21 167.25,581.56 167.70,580.77 168.15,580.37 168.60,579.96 169.05,579.25 169.50,578.19 169.95,576.97 170.40,575.67 170.85,574.32 171.30,573.23 171.75,572.84 172.20,573.41 172.65,574.88 173.10,576.89 173.55,578.94 174.00,580.84 174.45,582.64 174.90,584.31 175.35,585.88 175.80,587.64 176.25,589.78 176.70,592.27 177.15,594.87 177.60,597.12 178.05,598.26 178.50,597.69 178.95,595.14 179.40,590.47 179.85,583.88 180.31,576.11 180.76,568.13 181.21,560.60 181.66,554.01 182.11,548.60 182.56,544.38 183.01,541.34 183.46,539.54 183.91,538.99 184.36,539.80 184.81,542.19 185.26,545.91 185.71,550.21 186.16,554.57 186.61,558.96 187.06,563.45 187.51,568.11 187.96,573.05 188.41,578.11 188.86,582.96 189.31,587.35 189.76,591.18 190.21,594.36 190.66,596.74 191.11,598.13 191.56,598.50 192.01,598.23 192.46,598.06 192.91,598.49 193.36,599.62 193.81,601.26 194.26,603.00 194.71,604.29 195.16,604.90 195.61,604.80 196.06,603.84 196.51,602.01 196.96,599.74 197.41,597.68 197.86,596.30 198.31,595.92 198.76,596.53 199.21,597.99 199.66,600.32 200.12,603.46 200.57,606.91 201.02,610.11 201.47,612.67 201.92,614.33 202.37,615.06 202.82,615.10 203.27,614.64 203.72,613.73 204.17,612.78 204.62,612.17 205.07,611.80 205.52,611.41 205.97,611.10 206.42,611.13 206.87,611.65 207.32,612.63 207.77,613.83 208.22,614.93 208.67,615.78 209.12,616.41 209.57,616.85 210.02,617.39 210.47,618.35 210.92,619.79 211.37,621.60 211.82,623.89 212.27,626.49 212.72,628.88 213.17,630.67 213.62,631.80 214.07,632.18 214.52,631.87 214.97,631.26 215.42,630.65 215.87,630.08 216.32,629.60 216.77,629.30 217.22,629.27 217.67,629.84 218.12,631.29 218.57,633.63 219.02,636.87 219.47,641.01 219.92,645.73 220.38,650.56 220.83,655.24 221.28,659.62 221.73,663.54 222.18,667.06 222.63,670.30 223.08,673.18 223.53,675.47 223.98,677.09 224.43,677.90 224.88,677.85 225.33,677.24 225.78,676.53 226.23,676.02 226.68,675.96 227.13,676.42 227.58,677.07 228.03,677.46 228.48,677.19 228.93,675.97 229.38,673.73 229.83,670.75 230.28,667.17 230.73,662.91 231.18,658.07 231.63,652.91 232.08,647.55 232.53,642.09 232.98,636.66 233.43,631.28 233.88,625.88 234.33,620.62 234.78,615.68 235.23,611.07 235.68,606.78 236.13,602.75 236.58,598.83 237.03,594.98 237.48,591.13 237.93,587.02 238.38,582.55 238.83,578.01 239.28,573.76 239.73,569.92 240.19,566.69 240.64,564.18 241.09,562.20 241.54,560.44 241.99,558.82 242.44,557.35 242.89,556.10 243.34,555.21 243.79,554.71 244.24,554.48 244.69,554.56 245.14,554.91 245.59,555.16 246.04,555.06 246.49,554.61 246.94,553.78 247.39,552.66 247.84,551.79 248.29,551.69 248.74,552.43 249.19,553.95 249.64,556.36 250.09,559.73 250.54,563.99 250.99,568.78 251.44,573.34 251.89,576.91 252.34,579.21 252.79,580.38 253.24,580.76 253.69,580.77 254.14,580.72 254.59,580.56 255.04,580.09 255.49,579.18 255.94,577.72 256.39,575.81 256.84,573.91 257.29,572.36 257.74,571.21 258.19,570.59 258.64,570.64 259.09,571.19 259.54,571.83 259.99,572.25 260.45,572.38 260.90,572.32 261.35,572.25 261.80,572.19 262.25,572.02 262.70,571.78 263.15,571.65 263.60,571.71 264.05,572.15 264.50,573.30 264.95,575.06 265.40,576.94 265.85,578.43 266.30,579.22 266.75,579.28 267.20,579.13 267.65,579.37 268.10,580.09 268.55,581.08 269.00,582.15 269.45,582.99 269.90,583.17 270.35,582.63 270.80,581.71 271.25,580.80 271.70,580.23 272.15,580.13 272.60,580.34 273.05,580.61 273.50,580.79 273.95,580.80 274.40,580.69 274.85,580.60 275.30,580.38 275.75,579.61 276.20,578.22 276.65,576.58 277.10,575.01 277.55,573.73 278.00,573.11 278.45,573.42 278.90,574.58 279.35,576.43 279.80,578.64 280.26,580.75 280.71,582.39 281.16,583.44 281.61,583.88 282.06,583.81 282.51,583.39 282.96,582.74 283.41,582.00 283.86,581.51 284.31,581.47 284.76,581.77 285.21,582.26 285.66,582.91 286.11,583.70 286.56,584.65 287.01,585.90 287.46,587.40 287.91,588.97 288.36,590.44 288.81,591.44 289.26,591.43 289.71,590.21 290.16,588.16 290.61,585.99 291.06,584.49 291.51,584.09 291.96,584.53 292.41,585.32 292.86,586.26 293.31,587.22 293.76,588.02 294.21,588.83 294.66,589.93 295.11,591.33 295.56,592.82 296.01,594.32 296.46,595.62 296.91,596.45 297.36,596.59 297.81,595.98 298.26,594.62 298.71,592.73 299.16,590.61 299.61,588.57 300.07,586.96 300.52,586.11 300.97,586.24 301.42,587.64 301.87,590.52 302.32,594.65 302.77,599.46 303.22,604.58 303.67,609.70 304.12,614.11 304.57,617.09 305.02,618.43 305.47,618.38 305.92,617.37 306.37,615.84 306.82,613.98 307.27,611.73 307.72,609.10 308.17,606.24 308.62,603.15 309.07,599.84 309.52,596.39 309.97,592.92 310.42,589.72 310.87,587.23 311.32,585.67 311.77,584.84 312.22,584.41 312.67,584.17 313.12,583.99 313.57,584.02 314.02,584.51 314.47,585.27 314.92,585.84 315.37,585.96 315.82,585.56 316.27,584.60 316.72,583.18 317.17,581.47 317.62,579.69 318.07,578.34 318.52,578.15 318.97,579.39 319.42,581.92 319.87,585.51 320.33,589.53 320.78,593.01 321.23,595.12 321.68,595.35 322.13,593.36 322.58,589.47 323.03,584.55 323.48,579.39 323.93,574.35 324.38,569.60 324.83,565.20 325.28,561.32 325.73,558.35 326.18,556.61 326.63,556.00 327.08,556.35 327.53,557.45 327.98,558.95 328.43,560.44 328.88,561.75 329.33,562.76 329.78,563.47 330.23,564.32 330.68,565.98 331.13,568.77 331.58,572.79 332.03,577.94 332.48,583.77 332.93,589.55 333.38,594.66 333.83,598.72 334.28,601.50 334.73,603.07 335.18,603.73 335.63,603.78 336.08,603.73 336.53,604.28 336.98,605.76 337.43,608.02 337.88,610.78 338.33,613.58 338.78,615.81 339.23,617.13 339.68,617.51 340.14,616.82 340.59,615.00 341.04,612.37 341.49,609.44 341.94,606.71 342.39,604.68 342.84,603.56 343.29,603.21 343.74,603.42 344.19,603.99 344.64,604.72 345.09,605.62 345.54,606.90 345.99,608.52 346.44,610.32 346.89,612.32 347.34,614.41 347.79,616.22 348.24,617.52 348.69,618.23 349.14,618.25 349.59,617.73 350.04,617.17 350.49,616.85 350.94,616.65 351.39,616.55 351.84,616.69 352.29,617.18 352.74,618.22 353.19,620.01 353.64,622.49 354.09,625.36 354.54,628.26 354.99,630.92 355.44,633.19 355.89,635.16 356.34,636.86 356.79,638.13 357.24,638.90 357.69,639.33 358.14,639.58 358.59,639.78 359.04,640.08 359.49,640.52 359.94,641.09 360.40,641.93 360.85,643.23 361.30,644.98 361.75,646.95 362.20,648.88 362.65,650.63 363.10,652.39 363.55,654.47 364.00,656.83 364.45,659.37 364.90,662.19 365.35,665.29 365.80,668.34 366.25,671.21 366.70,673.90 367.15,676.16 367.60,677.76 368.05,678.69 368.50,679.01 368.95,678.78 369.40,678.37 369.85,678.18 370.30,678.15 370.75,678.08 371.20,677.88 371.65,677.57 372.10,677.25 372.55,676.98 373.00,676.54 373.45,675.53 373.90,673.67 374.35,670.69 374.80,666.46 375.25,661.19 375.70,655.15 376.15,648.40 376.60,641.13 377.05,633.91 377.50,627.24 377.95,621.20 378.40,615.67 378.85,610.38 379.30,604.92 379.75,599.03 380.21,592.74 380.66,586.19 381.11,579.58 381.56,573.19 382.01,567.24 382.46,562.11 382.91,558.38 383.36,556.26 383.81,555.55 384.26,556.19 384.71,558.14 385.16,560.92 385.61,563.77 386.06,566.13 386.51,567.65 386.96,568.12 387.41,567.66 387.86,566.61 388.31,565.43 388.76,564.56 389.21,564.18 389.66,564.10 390.11,564.10 390.56,564.01 391.01,563.56 391.46,562.71 391.91,561.76 392.36,560.94 392.81,560.27 393.26,559.97 393.71,560.38 394.16,561.45 394.61,562.95 395.06,564.84 395.51,567.01 395.96,569.11 396.41,570.89 396.86,572.22 397.31,572.97 397.76,573.15 398.21,572.90 398.66,572.44 399.11,572.21 399.56,572.91 400.02,574.85 400.47,577.83 400.92,581.44 401.37,585.06 401.82,587.79 402.27,589.02 402.72,588.57 403.17,586.54 403.62,583.32 404.07,579.72 404.52,576.52 404.97,574.29 405.42,573.36 405.87,573.62 406.32,574.49 406.77,575.43 407.22,576.18 407.67,576.62 408.12,576.80 408.57,576.92 409.02,577.06 409.47,577.19 409.92,577.39 410.37,577.67 410.82,577.92 411.27,578.15 411.72,578.43 412.17,578.59 412.62,578.47 413.07,578.25 413.52,578.08 413.97,577.95 414.42,577.79 414.87,577.47 415.32,576.81 415.77,575.78 416.22,574.65 416.67,573.66 417.12,573.00 417.57,572.80 418.02,573.04 418.47,573.72 418.92,575.06 419.37,577.09 419.82,579.46 420.28,581.83 420.73,584.00 421.18,585.77 421.63,587.00 422.08,587.76 422.53,588.06 422.98,587.90 423.43,587.41 423.88,586.97 424.33,586.86 424.78,587.19 425.23,587.85 425.68,588.41 426.13,588.42 426.58,587.64 427.03,585.94 427.48,583.44 427.93,580.70 428.38,578.24 428.83,576.34 429.28,575.32 429.73,575.55 430.18,576.89 430.63,578.79 431.08,580.77 431.53,582.44 431.98,583.56 432.43,584.15 432.88,584.43 433.33,584.45 433.78,584.15 434.23,583.48 434.68,582.51 435.13,581.50 435.58,580.87 436.03,580.98 436.48,582.11 436.93,584.55 437.38,588.14 437.83,592.33 438.28,596.79 438.73,601.40 439.18,605.67 439.63,608.94 440.09,610.90 440.54,611.56 440.99,611.22 441.44,610.51 441.89,610.07 442.34,610.23 442.79,611.09 443.24,612.50 443.69,613.95 444.14,614.84 444.59,614.69 445.04,613.14 445.49,610.15 445.94,606.24 446.39,602.01 446.84,597.75 447.29,593.60 447.74,589.62 448.19,585.60 448.64,581.52 449.09,577.86 449.54,575.06 449.99,573.16 450.44,572.04 450.89,571.59 451.34,571.74 451.79,572.52 452.24,573.87 452.69,575.43 453.14,576.90 453.59,578.10 454.04,578.77 454.49,578.76 454.94,578.38 455.39,578.26 455.84,578.99 456.29,581.22 456.74,585.39 457.19,591.23 457.64,597.75 458.09,603.68 458.54,607.66 458.99,608.58 459.44,606.07 459.89,600.34 460.35,592.05 460.80,582.25 461.25,572.11 461.70,562.37 462.15,553.59 462.60,546.32 463.05,540.97 463.50,537.72 463.95,536.72 464.40,537.92 464.85,540.75 465.30,544.53 465.75,548.62 466.20,552.33 466.65,555.39 467.10,558.21 467.55,561.30 468.00,565.08 468.45,569.86 468.90,575.58 469.35,581.67 469.80,587.46 470.25,592.47 470.70,596.36 471.15,599.13 471.60,601.14 472.05,602.75 472.50,604.09 472.95,605.26 473.40,606.14 473.85,606.46 474.30,606.37 474.75,606.31 475.20,606.41 475.65,606.58 476.10,607.04 476.55,607.99 477.00,609.37 477.45,611.11 477.90,613.11 478.35,615.10 478.80,616.84 479.25,618.12 479.70,618.69 480.16,618.20 480.61,616.49 481.06,613.82 481.51,610.78 481.96,608.05 482.41,605.94 482.86,604.31 483.31,603.08 483.76,602.39 484.21,602.20 484.66,602.38 485.11,602.90 485.56,603.65 486.01,604.42 486.46,605.23 486.91,606.24 487.36,607.52 487.81,609.19 488.26,611.46 488.71,614.40 489.16,617.87 489.61,621.51 490.06,624.86 490.51,627.71 490.96,630.10 491.41,631.94 491.86,633.15 492.31,633.97 492.76,634.83 493.21,635.80 493.66,636.69 494.11,637.40 494.56,637.89 495.01,638.12 495.46,638.32 495.91,638.77 496.36,639.41 496.81,640.14 497.26,641.00 497.71,642.03 498.16,643.26 498.61,644.71 499.06,646.21 499.51,647.65 499.96,649.35 500.42,651.64 500.87,654.43 501.32,657.66 501.77,661.39 502.22,665.46 502.67,669.49 503.12,673.16 503.57,676.20 504.02,678.31 504.47,679.58 504.92,680.33 505.37,680.83 505.82,681.27 506.27,681.73 506.72,682.15 507.17,682.54 507.62,682.96 508.07,683.28 508.52,683.21 508.97,682.60 509.42,681.24 509.87,678.82 510.32,675.28 510.77,670.83 511.22,665.67 511.67,660.14 512.12,654.76 512.57,649.77 513.02,644.90 513.47,639.94 513.92,634.82 514.37,629.42 514.82,623.53 515.27,617.03 515.72,609.90 516.17,602.21 516.62,594.08 517.07,585.58 517.52,576.97 517.97,568.88 518.42,561.90 518.87,556.29 519.32,552.31 519.77,550.13 520.23,549.52 520.68,550.11 521.13,551.71 521.58,554.02 522.03,556.59 522.48,559.09 522.93,561.17 523.38,562.33 523.83,562.33 524.28,561.48 524.73,560.34 525.18,559.46 525.63,559.21 526.08,559.52 526.53,560.14 526.98,561.01 527.43,561.97 527.88,562.59 528.33,562.62 528.78,562.11 529.23,561.06 529.68,559.62 530.13,558.31 530.58,557.75 531.03,558.26 531.48,559.86 531.93,562.16 532.38,564.60 532.83,566.78 533.28,568.46 533.73,569.38 534.18,569.40 534.63,568.61 535.08,567.11 535.53,565.22 535.98,563.70 536.43,563.26 536.88,564.09 537.33,566.03 537.78,568.78 538.23,571.86 538.68,574.91 539.13,577.79 539.58,580.25 540.04,581.90 540.49,582.68 540.94,582.76 541.39,582.28 541.84,581.33 542.29,580.05 542.74,578.38 543.19,576.38 543.64,574.41 544.09,572.89 544.54,572.13 544.99,572.36 545.44,573.49 545.89,575.14 546.34,577.06 546.79,579.24 547.24,581.65 547.69,584.13 548.14,586.47 548.59,588.35 549.04,589.47 549.49,590.12 549.94,590.80 550.39,591.51 550.84,591.73 551.29,591.01 551.74,589.33 552.19,586.91 552.64,584.09 553.09,581.18 553.54,578.62 553.99,576.97 554.44,576.47 554.89,576.97 555.34,578.30 555.79,580.33 556.24,582.70 556.69,585.14 557.14,587.73 557.59,590.37 558.04,592.62 558.49,594.08 558.94,594.54 559.39,593.82 559.84,591.98 560.30,589.60 560.75,587.38 561.20,585.90 561.65,585.56 562.10,586.33 562.55,587.91 563.00,589.99 563.45,592.06 563.90,593.42 564.35,593.75 564.80,593.14 565.25,591.67 565.70,589.48 566.15,587.14 566.60,585.33 567.05,584.41 567.50,584.53 567.95,585.63 568.40,587.41 568.85,589.43 569.30,591.19 569.75,592.14 570.20,592.10 570.65,591.50 571.10,590.88 571.55,590.64 572.00,591.17 572.45,592.66 572.90,594.85 573.35,597.21 573.80,599.26 574.25,600.49 574.70,600.71 575.15,600.30 575.60,599.74 576.05,599.18 576.50,598.79 576.95,598.82 577.40,599.45 577.85,600.84 578.30,603.05 578.75,605.78 579.20,608.47 579.65,610.67 580.11,612.11 580.56,612.69 581.01,612.62 581.46,612.03 581.91,610.81 582.36,608.98 582.81,606.71 583.26,603.92 583.71,600.40 584.16,596.11 584.61,591.29 585.06,586.26 585.51,581.56 585.96,577.68 586.41,574.85 586.86,573.22 587.31,572.86 587.76,573.58 588.21,575.10 588.66,577.25 589.11,579.61 589.56,581.71 590.01,583.40 590.46,584.62 590.91,585.16 591.36,585.14 591.81,584.99 592.26,585.03 592.71,585.59 593.16,587.11 593.61,589.74 594.06,593.20 594.51,597.16 594.96,601.30 595.41,604.87 595.86,606.96 596.31,606.79 596.76,603.93 597.21,598.60 597.66,591.57 598.11,583.69 598.56,575.61 599.01,567.94 599.46,561.06 599.91,555.15 600.37,550.66 600.82,548.05 601.27,547.28 601.72,548.03 602.17,550.19 602.62,553.68 603.07,558.02 603.52,562.61 603.97,566.95 604.42,570.64 604.87,573.79 605.32,576.98 605.77,580.63 606.22,584.67 606.67,588.68 607.12,592.13 607.57,594.64 608.02,596.22 608.47,597.14 608.92,597.69 609.37,598.32 609.82,599.54 610.27,601.36 610.72,603.32 611.17,604.99 611.62,606.15 612.07,606.80 612.52,607.12 612.97,607.34 613.42,607.48 613.87,607.53 614.32,607.49 614.77,607.29 615.22,606.96 615.67,606.71 616.12,606.51 616.57,606.16 617.02,605.79 617.47,605.64 617.92,605.69 618.37,605.88 618.82,606.22 619.27,606.65 619.72,607.21 620.18,608.11 620.63,609.37 621.08,610.65 621.53,611.80 621.98,612.96 622.43,614.17 622.88,615.30 623.33,616.17 623.78,616.57 624.23,616.58 624.68,616.80 625.13,617.78 625.58,619.45 626.03,621.43 626.48,623.36 626.93,624.90 627.38,625.89 627.83,626.42 628.28,626.48 628.73,626.13 629.18,625.69 629.63,625.51 630.08,625.74 630.53,626.50 630.98,627.82 631.43,629.51 631.88,631.42 632.33,633.46 632.78,635.37 633.23,636.85 633.68,637.76 634.13,638.15 634.58,638.19 635.03,638.23 635.48,638.55 635.93,639.37 636.38,641.17 636.83,644.42 637.28,649.00 637.73,654.33 638.18,659.85 638.63,664.93 639.08,668.87 639.53,671.21 639.98,671.84 640.44,671.01 640.89,669.44 641.34,667.99 641.79,667.10 642.24,666.83 642.69,667.16 643.14,667.85 643.59,668.55 644.04,669.07 644.49,669.25 644.94,668.83 645.39,667.79 645.84,666.50 646.29,665.26 646.74,664.29 647.19,663.76 647.64,663.61 648.09,663.56 648.54,663.46 648.99,663.12 649.44,661.96 649.89,659.40 650.34,655.43 650.79,650.45 651.24,644.90 651.69,639.08 652.14,632.90 652.59,626.20 653.04,619.05 653.49,611.63 653.94,603.99 654.39,596.38 654.84,589.21 655.29,582.70 655.74,577.17 656.19,572.95 656.64,569.95 657.09,567.66 657.54,565.82 657.99,564.38 658.44,563.22 658.89,562.38 659.34,562.12 659.79,562.53 660.25,563.39 660.70,564.30 661.15,564.76 661.60,564.45 662.05,563.59 662.50,562.62 662.95,561.75 663.40,561.23 663.85,561.31 664.30,562.04 664.75,563.33 665.20,565.07 665.65,566.79 666.10,567.85 666.55,568.03 667.00,567.59 667.45,566.93 667.90,566.52 668.35,566.69 668.80,567.41 669.25,568.48 669.70,569.95 670.15,571.75 670.60,573.53 671.05,574.92 671.50,575.78 671.95,576.20 672.40,576.49 672.85,577.05 673.30,578.10 673.75,579.71 674.20,581.93 674.65,584.37 675.10,586.36 675.55,587.57 676.00,588.11 676.45,588.17 676.90,587.81 677.35,587.08 677.80,585.90 678.25,584.25 678.70,582.37 679.15,580.49 679.60,578.63 680.06,576.83 680.51,575.18 680.96,573.83 681.41,573.07 681.86,573.16 682.31,573.94 682.76,575.13 683.21,576.71 683.66,578.68 684.11,580.85 684.56,583.05 685.01,585.03 685.46,586.32 685.91,586.65 686.36,586.20 686.81,585.21 687.26,583.82 687.71,582.22 688.16,580.54 688.61,578.87 689.06,577.46 689.51,576.56 689.96,576.19 690.41,576.36 690.86,577.05 691.31,578.03 691.76,579.08 692.21,580.02 692.66,580.65 693.11,580.93 693.56,581.27 694.01,582.04 694.46,583.25 694.91,584.70 695.36,586.20 695.81,587.44 696.26,588.15 696.71,588.45 697.16,588.56 697.61,588.69 698.06,589.21 698.51,590.47 698.96,592.33 699.41,594.35 699.86,595.98 700.32,596.59 700.77,595.93 701.22,594.25 701.67,591.80 702.12,588.84 702.57,585.88 703.02,583.50 703.47,582.01 703.92,581.56 704.37,582.16 704.82,583.51 705.27,585.26 705.72,587.27 706.17,589.29 706.62,590.82 707.07,591.49 707.52,591.24 707.97,590.17 708.42,588.65 708.87,587.20 709.32,586.10 709.77,585.48 710.22,585.49 710.67,586.11 711.12,587.08 711.57,588.37 712.02,590.16 712.47,592.28 712.92,594.39 713.37,596.31 713.82,597.97 714.27,599.36 714.72,600.60 715.17,601.69 715.62,602.62 716.07,603.58 716.52,604.75 716.97,606.24 717.42,608.11 717.87,610.24 718.32,612.12 718.77,613.25 719.22,613.49 719.67,612.72 720.13,610.65 720.58,607.30 721.03,603.14 721.48,598.60 721.93,594.02 722.38,589.81 722.83,586.18 723.28,583.07 723.73,580.35 724.18,577.92 724.63,575.70 725.08,573.76 725.53,572.14 725.98,570.78 726.43,569.77 726.88,569.33 727.33,569.52 727.78,570.39 728.23,572.03 728.68,574.19 729.13,576.41 729.58,578.52 730.03,580.68 730.48,582.92 730.93,585.25 731.38,587.90 731.83,590.96 732.28,594.24 732.73,597.44 733.18,600.05 733.63,601.41 734.08,601.03 734.53,598.59 734.98,593.97 735.43,587.53 735.88,579.97 736.33,571.92 736.78,563.96 737.23,556.90 737.68,551.38 738.13,547.73 738.58,546.14 739.03,546.46 739.48,548.05 739.93,550.22 740.39,552.79 740.84,555.68 741.29,558.64 741.74,561.55 742.19,564.66 742.64,568.39 743.09,573.16 743.54,579.08 743.99,585.78 744.44,592.64 744.89,598.87 745.34,603.45 745.79,605.69 746.24,605.60 746.69,603.67 747.14,600.56 747.59,597.12 748.04,594.29 748.49,592.61 748.94,592.36 749.39,593.48 749.84,595.41 750.29,597.26 750.74,598.44 751.19,598.86 751.64,598.90 752.09,599.19 752.54,600.11 752.99,601.62 753.44,603.66 753.89,606.16 754.34,608.74 754.79,610.93 755.24,612.59 755.69,613.74 756.14,614.35 756.59,614.54 757.04,614.43 757.49,613.82 757.94,612.46 758.39,610.68 758.84,608.97 759.29,607.71 759.74,607.10 760.20,607.15 760.65,607.64 761.10,608.35 761.55,609.06 762.00,609.59 762.45,610.10 762.90,610.92 763.35,612.10 763.80,613.49 764.25,615.18 764.70,617.16 765.15,619.06 765.60,620.68 766.05,622.11 766.50,623.40 766.95,624.63 767.40,625.98 767.85,627.56 768.30,629.25 768.75,630.84 769.20,632.08 769.65,632.78 770.10,633.06 770.55,633.17 771.00,633.38 771.45,634.14 771.90,635.90 772.35,638.55 772.80,641.61 773.25,644.63 773.70,647.15 774.15,648.64 774.60,649.07 775.05,648.96 775.50,648.76 775.95,648.74 776.40,649.18 776.85,650.21 777.30,651.73 777.75,653.65 778.20,655.83 778.65,658.22 779.10,660.90 779.55,663.81 780.01,666.57 780.46,668.93 780.91,670.83 781.36,672.11 781.81,672.58 782.26,672.39 782.71,671.71 783.16,670.59 783.61,669.39 784.06,668.56 784.51,668.15 784.96,667.88 785.41,667.53 785.86,666.91 786.31,665.77 786.76,663.84 787.21,660.82 787.66,656.46 788.11,650.91 788.56,644.58 789.01,637.76 789.46,630.68 789.91,623.55 790.36,616.40 790.81,609.10 791.26,601.65 791.71,594.15 792.16,586.77 792.61,579.89 793.06,574.01 793.51,569.43 793.96,566.42 794.41,565.23 794.86,565.67 795.31,567.03 795.76,568.57 796.21,569.75 796.66,570.18 797.11,569.72 797.56,568.29 798.01,565.97 798.46,563.18 798.91,560.60 799.36,558.68 799.81,557.72 800.27,557.95 800.72,559.19 801.17,560.86 801.62,562.51 802.07,563.82 802.52,564.51 802.97,564.53 803.42,564.23 803.87,563.83 804.32,563.30 804.77,562.68 805.22,562.03 805.67,561.41 806.12,560.98 806.57,560.98 807.02,561.50 807.47,562.62 807.92,564.33 808.37,566.40 808.82,568.64 809.27,571.01 809.72,573.29 810.17,574.98 810.62,575.91 811.07,576.31 811.52,576.38 811.97,576.27 812.42,576.18 812.87,576.18 813.32,576.24 813.77,576.43 814.22,576.78 814.67,577.17 815.12,577.67 815.57,578.43 816.02,579.34 816.47,580.28 816.92,581.24 817.37,582.02 817.82,582.47 818.27,582.64 818.72,582.50 819.17,581.82 819.62,580.62 820.08,579.26 820.53,577.96 820.98,576.74 821.43,575.61 821.88,574.57 822.33,573.68 822.78,573.15 823.23,573.14 823.68,573.57 824.13,574.29 824.58,575.18 825.03,576.16 825.48,577.29 825.93,578.64 826.38,580.17 826.83,581.79 827.28,583.70 827.73,585.94 828.18,588.23 828.63,590.34 829.08,592.23 829.53,593.65 829.98,594.33 830.43,594.32 830.88,593.73 831.33,592.55 831.78,590.86 832.23,588.85 832.68,586.82 833.13,585.12 833.58,583.95 834.03,583.23 834.48,582.80 834.93,582.51 835.38,582.26 835.83,582.05 836.28,582.10 836.73,582.50 837.18,583.21 837.63,584.38 838.08,586.20 838.53,588.39 838.98,590.47 839.43,592.30 839.88,593.79 840.34,594.81 840.79,595.37 841.24,595.60 841.69,595.49 842.14,595.06 842.59,594.35 843.04,593.34 843.49,592.11 843.94,590.80 844.39,589.41 844.84,588.03 845.29,586.92 845.74,586.22 846.19,585.75 846.64,585.45 847.09,585.44 847.54,585.76 847.99,586.47 848.44,587.71 848.89,589.31 849.34,590.88 849.79,592.17 850.24,593.18 850.69,594.09 851.14,595.13 851.59,596.41 852.04,597.78 852.49,599.19 852.94,600.59 853.39,601.76 853.84,602.39 854.29,602.51 854.74,602.26 855.19,601.69 855.64,601.19 856.09,601.37 856.54,602.53 856.99,604.64 857.44,607.65 857.89,611.39 858.34,615.42 858.79,619.23 859.24,622.23 859.69,623.89 860.15,623.98 860.60,622.55 861.05,619.61 861.50,615.32 861.95,610.03 862.40,604.11 862.85,597.81 863.30,591.61 863.75,586.02 864.20,581.41 864.65,578.13 865.10,576.25 865.55,575.47 866.00,575.39 866.45,575.83 866.90,576.75 867.35,578.12 867.80,579.96 868.25,582.12 868.70,584.31 869.15,586.27 869.60,587.72 870.05,588.39 870.50,588.28 870.95,587.83 871.40,587.70 871.85,588.52 872.30,590.80 872.75,594.48 873.20,598.84 873.65,603.06 874.10,606.36 874.55,607.89 875.00,606.91 875.45,603.25 875.90,597.27 876.35,589.67 876.80,581.31 877.25,572.77 877.70,564.22 878.15,555.96 878.60,548.64 879.05,542.91 879.50,539.18 879.95,537.77 880.41,538.77 880.86,542.01 881.31,547.15 881.76,553.50 882.21,560.13 882.66,566.47 883.11,572.43 883.56,578.01 884.01,583.11 884.46,587.64 884.91,591.43 885.36,594.28 885.81,596.24 886.26,597.36 886.71,597.69 887.16,597.45 887.61,596.94 888.06,596.27 888.51,595.63 888.96,595.37 889.41,595.68 889.86,596.53 890.31,597.97 890.76,599.99 891.21,602.37 891.66,604.98 892.11,607.74 892.56,610.39 893.01,612.72 893.46,614.76 893.91,616.42 894.36,617.45 894.81,617.60 895.26,616.76 895.71,614.96 896.16,612.53 896.61,609.89 897.06,607.38 897.51,605.26 897.96,603.58 898.41,602.21 898.86,601.11 899.31,600.67 899.76,601.22 900.22,602.76 900.67,605.18 901.12,608.28 901.57,611.48 902.02,614.15 902.47,615.97 902.92,616.91 903.37,617.12 903.82,617.03 904.27,616.90 904.72,616.79 905.17,616.86 905.62,617.54 906.07,619.09 906.52,621.54 906.97,624.71 907.42,628.06 907.87,630.89 908.32,632.74 908.77,633.40 909.22,632.92 909.67,631.83 910.12,630.90 910.57,630.57 911.02,631.09 911.47,632.68 911.92,635.23 912.37,638.25 912.82,641.36 913.27,644.46 913.72,647.41 914.17,650.05 914.62,652.21 915.07,653.75 915.52,654.81 915.97,655.89 916.42,657.18 916.87,658.65 917.32,660.36 917.77,662.21 918.22,663.83 918.67,664.98 919.12,665.69 919.57,666.02 920.03,666.16 920.48,666.53 920.93,667.32 921.38,668.35 921.83,669.35 922.28,670.03 922.73,670.21 923.18,669.90 923.63,669.18 924.08,668.04 924.53,666.63 924.98,665.25 925.43,663.93 925.88,662.49 926.33,660.83 926.78,658.79 927.23,656.14 927.68,652.99 928.13,649.62 928.58,645.97 929.03,641.91 929.48,637.56 929.93,632.98 930.38,627.91 930.83,622.13 931.28,615.58 931.73,608.39 932.18,601.00 932.63,593.97 933.08,587.72 933.53,582.41 933.98,578.09 934.43,574.62 934.88,571.83 935.33,569.53 935.78,567.46 936.23,565.39 936.68,563.44 937.13,561.89 937.58,560.87 938.03,560.45 938.48,560.76 938.93,561.62 939.38,562.69 939.83,563.76 940.29,564.78 940.74,565.59 941.19,566.16 941.64,566.70 942.09,567.33 942.54,567.97 942.99,568.47 943.44,568.68 943.89,568.58 944.34,568.44 944.79,568.44 945.24,568.49 945.69,568.52 946.14,568.67 946.59,569.13 947.04,570.07 947.49,571.60 947.94,573.55 948.39,575.53 948.84,577.33 949.29,578.75 949.74,579.46 950.19,579.42 950.64,578.98 951.09,578.52 951.54,578.28 951.99,578.50 952.44,579.20 952.89,580.19 953.34,581.33 953.79,582.43 954.24,583.28 954.69,583.86 955.14,584.30 955.59,584.56 956.04,584.55 956.49,584.30 956.94,583.78 957.39,583.04 957.84,582.36 958.29,582.00 958.74,582.05 959.19,582.59 959.64,583.64 960.10,584.92 960.55,586.03 961.00,586.62 961.45,586.41 961.90,585.45 962.35,584.30 962.80,583.60 963.25,583.70 963.70,584.80 964.15,586.71 964.60,588.72 965.05,590.14 965.50,590.91 965.95,591.23 966.40,591.07 966.85,590.40 967.30,589.43 967.75,588.64 968.20,588.64 968.65,589.82 969.10,591.97 969.55,594.53 970.00,596.46" fill="none" stroke="#1f77b4" stroke-width="1.4"/>
<text class="ylabel" transform="translate(25,610.0) rotate(-90)" text-anchor="middle">Voltage [V]</text>
<text class="xlabel" x="520.0" y="737" text-anchor="middle">Time [s]</text>
</svg>